<svg preserveAspectRatio="none" width="100%" height="100%" overflow="visible" style="display: block;" viewBox="0 0 51 39.9526" fill="none" xmlns="http://www.w3.org/2000/svg">
<g id="Group 3">
<path id="Vector" d="M48.023 19.7439L48.3471 19.84C48.4625 19.8743 48.6891 19.4156 48.7715 19.5117L48.8883 19.6463L48.2565 20.2177L47.7991 20.6256L47.3377 20.9964L46.7059 21.3618C46.5932 21.6777 46.2828 21.7642 45.9889 21.6722C45.6854 21.859 45.364 21.9839 45.0069 22.0169C44.7295 21.8658 44.5179 21.9565 44.2748 22.1295C44.0743 22.271 43.7694 22.1336 43.5606 22.0663C43.4315 22.0251 43.2681 21.9839 43.1651 21.9194L42.808 21.6996C42.7833 21.6845 42.7558 21.5499 42.7256 21.5472L42.536 21.5321L42.4838 21.1214C42.0636 21.1956 41.7889 20.7849 41.6872 20.4017L41.484 19.6299L41.2285 18.0188C41.1708 17.6576 41.1351 17.3266 41.2518 17.0272C41.1406 16.7965 41.1955 16.2924 41.2642 15.9916L41.1145 15.6977C41.3645 15.5755 41.3947 15.478 41.3343 15.3338C41.2464 15.1264 41.1145 15.1346 40.9785 15.2184L41.1763 15.3516C41.2161 15.3791 41.2244 15.5205 41.1983 15.5425L40.5995 15.2252L40.2588 15.5975C40.2149 15.6002 40.0597 15.5975 40.046 15.6345L39.9471 15.8831L40.2012 15.7678C40.2726 15.6373 40.3179 15.6867 40.2946 15.8213L40.6777 15.7101L40.3028 16.1139L40.1874 16.0122C40.1531 15.982 40.0418 16.0328 39.9896 16.0589L39.1299 16.4943L38.9637 16.7868L39.3757 16.9297C39.5378 16.986 39.7369 16.883 39.8674 17.1659C39.2411 17.398 38.6024 17.6233 37.9171 17.729C37.321 17.821 36.7455 17.6246 36.1755 17.512C35.6577 17.4296 35.1894 17.3747 34.6798 17.3939C33.8942 17.2154 33.2336 16.7553 32.6828 16.2114L32.209 15.7444L32.198 16.2718L32.1884 16.9517C32.1856 17.1879 32.3244 17.7029 32.1664 17.9021L31.3877 18.8923L30.9646 18.3787L30.3727 19.1341C30.3177 19.2041 30.3219 19.5131 30.2436 19.5392L29.9043 19.6532C29.664 19.5488 29.3948 19.3414 29.2725 19.1423L28.5982 19.5186C28.4375 19.4541 28.2012 19.2288 28.2246 19.0874C28.2809 18.7467 28.0927 18.619 28.3084 17.9749L28.0666 18.2084C28.0186 18.3869 27.9224 18.4927 27.6779 18.6094C27.7384 18.0106 27.9829 17.328 28.3949 16.7841C28.1971 16.5204 28.535 16.4311 28.5721 15.9751L28.6092 15.5329C28.6407 15.1525 28.9058 14.8421 28.8687 14.5427C28.8042 14.0207 29.1503 13.5153 29.1723 13.0168C29.1846 12.7421 28.9992 12.5347 29.2464 12.2174C29.4167 11.999 29.5445 11.6186 29.5967 11.3288L29.7491 10.4732C29.8617 10.0996 29.94 9.71776 29.9194 9.33183L30.5993 7.86499C30.6886 7.67409 30.727 7.45846 30.7669 7.25381L30.8575 6.91458L30.7545 7.09587C30.6199 6.77586 30.499 6.56435 30.6996 6.30065L30.2161 5.8172C30.3837 5.22113 31.1459 5.0206 31.2998 4.03585C32.3326 3.48785 33.533 3.51669 34.6757 3.62931C35.1564 3.67601 35.5959 3.60047 36.0519 3.77764C36.4763 3.94246 37.0106 3.94383 37.3938 4.20616L38.0215 4.63467C38.2948 4.82283 38.4033 5.06593 38.3978 5.40791C38.5338 5.5329 38.8016 5.59882 38.9953 5.71007L39.3991 5.93943C39.6312 6.47645 40.0748 6.48606 40.0116 7.0011L40.0789 6.70581C40.127 6.74702 40.2204 6.88711 40.1737 6.93106L39.9553 7.13433C39.4856 7.57245 39.2452 8.20286 38.8785 8.73026L37.5476 10.649L36.7167 11.8631C36.4008 12.3245 36.0506 12.6995 35.6069 13.0566L35.4888 12.8684L35.3322 13.2956L35.8528 13.9356C36.6247 13.8134 37.3499 14.1924 38.1506 14.2803C38.7783 14.349 39.3166 14.5385 39.9306 14.7391C40.3536 14.8764 40.9208 14.6402 41.2944 15.0385C41.3288 15.0055 41.4112 14.9107 41.3865 14.8791L41.2628 14.7239L41.3137 12.8739L41.2958 12.5718C41.4579 12.6102 41.44 12.6075 41.4414 12.6061C41.4414 12.6047 41.4977 12.5443 41.4963 12.5402C41.4963 12.5388 41.4647 12.5292 41.3315 12.488C41.3054 12.3946 41.4263 12.1336 41.5279 12.0073C41.4895 11.6708 41.5911 11.3151 41.6598 10.9786L41.8548 10.0309L42.2325 8.45008L42.3369 7.49279L42.4481 7.52576C42.4811 7.53537 42.5635 7.46258 42.536 7.4406L42.3644 7.30188L42.764 6.55473L43.0689 6.40915L42.8849 6.45447C42.8258 6.47096 42.7668 6.43937 42.7489 6.38443C42.7407 6.35696 42.7338 6.22923 42.775 6.23472L43.0154 6.26906C42.981 6.24159 42.8423 6.15644 42.8629 6.10562L42.9659 5.86527C43.0071 5.76775 43.1459 5.56998 43.2475 5.54663C43.4576 5.49581 43.974 5.57822 44.0551 5.76226C44.3215 5.67161 44.5743 5.46972 44.8888 5.18679L43.9191 5.12499C44.5028 4.34213 45.2308 4.21165 46.1359 3.98915C46.4284 4.26521 46.8693 4.27483 47.2031 4.44101C47.5368 4.6072 47.9241 4.86129 48.2386 5.10164C48.5436 5.38044 48.7633 5.7966 49.0284 6.14957L49.2852 7.0066C49.3388 7.18377 49.3731 7.29364 49.4542 7.41313L49.6327 7.67821C49.5146 7.76061 49.402 7.90208 49.3759 8.04629L49.6011 7.80594L49.7508 8.56957L49.847 9.06675C49.4803 8.93902 49.5833 8.66296 49.4665 8.44871L49.1698 7.9062L49.3072 8.51875C49.3937 8.90194 49.6258 9.44857 49.9088 9.6587C50.02 9.9485 50.0269 10.1847 49.8319 10.2246C49.8044 10.2301 49.7343 10.2671 49.7604 10.2781C49.7865 10.2891 49.8854 10.3482 49.8978 10.3743L50.2054 11.0129L50.1285 12.6514C50.1162 12.9275 50.27 13.3093 50.1684 13.5716C50.0461 13.8834 50.0077 14.1979 50.1587 14.4863C50.2082 14.5797 50.1271 14.7981 50.1464 14.8888L50.2439 15.3406L50.6243 14.8723C50.7534 15.5164 50.5007 16.0562 50.1725 16.5534C50.1478 16.9297 50.0571 17.2648 49.8621 17.5793C49.5833 18.163 49.1877 18.6231 48.7413 19.0805C48.6095 19.2165 48.5353 19.27 48.365 19.3016L48.4172 19.6532L48.0216 19.7329L48.023 19.7439ZM33.875 9.67519C34.0893 9.50076 34.3021 9.18899 34.4161 8.94452L34.8872 7.94191C35.015 7.92131 35.1894 7.83478 35.177 7.75375C35.118 7.34583 34.2115 6.95166 33.7129 7.23047L33.3297 9.00907C33.2514 9.3744 33.2405 9.74798 33.088 10.0913L33.2061 10.2163L33.8736 9.67381L33.875 9.67519ZM44.7391 17.1851L44.6649 17.2717C44.5797 17.3706 45.0824 17.9502 45.1126 18.6698C45.5068 18.4776 45.89 18.0847 46.0576 17.6013L46.655 15.8818L46.7512 16.2649L46.9737 16.1015L47.0286 16.7044L47.1797 16.4435C47.2072 16.3968 47.3129 16.3844 47.3679 16.3679C47.3253 16.302 47.2594 16.2182 47.2813 16.1798L47.3747 16.0067L47.2704 16.0397C47.2497 16.0452 47.1756 16.0383 47.1866 16.0205L47.2552 15.8955C47.2813 15.8474 47.3322 15.7005 47.2855 15.673C47.247 15.6496 47.122 15.5755 47.1564 15.5961C47.1275 15.6922 47.008 15.8872 46.9531 15.8529C46.8981 15.8186 46.7951 15.7142 46.7539 15.6565C46.7155 15.6029 46.8116 15.4807 46.8446 15.4491C46.8047 15.3777 46.7361 15.1895 46.7443 15.103C46.7526 15.0165 46.8748 14.919 46.9847 14.8311L46.9929 14.0853L47.0712 13.5812C47.122 13.2502 47.1138 12.9742 47.0396 12.6308C46.8418 11.7202 47.1248 11.2601 46.9682 10.7808C46.9586 10.7506 47.0053 10.6572 46.9929 10.6407L46.8981 10.5089L46.9339 9.91004C47.177 9.9018 47.0946 9.82352 46.9421 9.79605C46.846 9.10109 46.4573 8.56545 46.0535 7.99822L45.923 8.00096C45.8749 8.00096 45.7609 7.85263 45.7238 7.8183C45.5164 7.80044 45.1662 7.94191 45.033 8.09161C45.1648 8.37179 45.2239 8.60802 45.2266 8.91018L45.2376 10.535C45.2376 10.6421 45.2239 10.8165 45.1923 10.8907C45.1676 10.9497 44.9959 10.9593 44.9259 10.9593C45.0495 10.3509 45.0866 9.80566 45.0907 9.1986L45.0948 8.52974C45.0948 8.38965 44.8847 8.20011 44.7748 8.24544C44.5811 8.6039 44.6608 9.03242 44.647 9.395L44.5921 10.8151L44.4946 12.5045L44.5111 13.003C44.5262 13.4453 44.6306 13.8381 44.7926 14.2295C44.9327 13.9878 44.9259 13.8601 44.8984 13.7117C44.8009 13.069 44.9368 12.2421 44.952 11.5376C44.9533 11.4607 45.1415 11.2862 45.1786 11.2917L45.1758 12.0348L45.1717 12.4358C45.1662 12.9673 45.1662 13.4618 45.0907 13.9727L44.9245 15.0961V16.0493C44.9245 16.3844 45.1017 16.6646 44.9726 17.0959L44.8723 16.5534L44.7418 17.1824L44.7391 17.1851ZM46.8075 8.48991L47.3651 8.91705C47.0808 8.44596 47.3363 8.07101 47.0753 7.92131L47.0698 8.26329L46.7635 8.15891L46.8061 8.48991H46.8075ZM47.6989 11.0651C47.7002 11.0129 47.8252 10.8756 47.8472 10.9168L47.9433 11.0926C47.9763 11.153 48.0024 11.2986 47.9887 11.3522C47.9282 11.4401 47.8939 11.4977 47.9296 11.506C47.964 11.5142 48.0738 11.5321 48.0752 11.5252L48.1095 11.3947L48.2812 10.7094C48.1686 10.6544 48.1398 10.6421 48.1494 10.6435C48.1549 10.6448 48.1013 10.719 48.0519 10.789L48.0409 10.3495L47.8115 9.37852C47.7799 9.24255 47.6357 9.03791 47.5066 8.88271C46.9833 9.66695 47.4887 10.4072 47.2484 11.0555L47.3486 11.6255L47.3418 12.4289C47.475 12.2394 47.519 12.3822 47.4269 12.51L47.6398 12.705L47.6673 12.0938L47.6948 11.0651H47.6989ZM36.5986 11.2176C36.9062 10.8454 37.2523 10.4512 37.4432 9.93614L36.8073 10.7025C36.7442 10.811 36.6686 11.0198 36.5986 11.2176ZM43.6856 10.9429L43.871 11.0871C43.8628 10.7987 43.8449 10.6682 43.7392 10.4635L43.551 10.9635C43.5112 11.0692 43.5442 11.2794 43.6087 11.3686L43.6856 10.9429ZM36.3156 11.8013C36.4214 11.5911 36.5189 11.4744 36.5368 11.2725L36.0492 11.712L35.6921 12.3932C35.9476 12.2051 36.1357 12.0155 36.3156 11.8026V11.8013ZM49.5668 12.6844L49.4226 12.3067C49.3319 12.0705 49.0751 11.9743 48.8306 12.0471L49.4088 12.9714L49.4706 12.7022C49.4789 12.6693 49.6025 12.6844 49.5668 12.683V12.6844ZM49.3814 17.3156C49.6876 16.9393 49.906 16.519 49.8868 16.0452C49.7659 16.2938 49.7137 16.4078 49.5352 16.5918C49.4596 16.7759 49.4006 17.0753 49.3814 17.3156Z" fill="var(--fill-0, #D75C2A)"/>
<path id="Vector_2" d="M26.5311 16.8157C26.7207 17.089 26.4913 17.3348 26.2853 17.5436L25.4722 18.3759L24.221 19.4582C23.6317 19.9677 23.0357 19.7699 22.8887 20.0323C22.7775 20.2314 22.6923 20.2699 22.4753 20.3454L21.551 20.6654L20.8793 20.9799C20.3313 21.2368 20.1102 21.2203 19.9797 21.429C19.7394 21.5114 19.3974 21.495 19.1144 21.4387L19.6652 21.2532C19.7188 21.2148 19.5938 21.0101 19.521 21.0404C19.2614 21.1502 18.951 21.109 18.6667 21.0651C17.9333 20.9497 17.2932 20.6448 16.6326 20.3179C16.0887 20.0487 15.6204 19.7878 15.2042 19.3249L14.5065 18.5489C14.42 18.4528 14.3897 18.1767 14.3472 18.0435C14.2139 17.6301 14.1041 17.2043 14.1343 16.8129C14.1947 16.7511 14.2428 16.6179 14.2235 16.5794L12.0631 17.0066C11.7733 17.0643 11.3352 16.8486 11.1346 17.0107L11.3626 17.0903C11.4011 17.1041 11.4931 17.1934 11.4849 17.1975L11.2843 17.2249C11.2418 17.2304 11.2225 17.4104 11.2431 17.3994C11.8255 17.5532 12.2183 17.1782 12.7636 17.2277L13.2402 17.2716C12.8666 17.4667 12.6276 17.5161 12.2883 17.5601C11.9106 17.718 11.5288 17.7414 11.1731 17.582C10.9616 17.7441 10.6677 17.5628 10.5482 17.3513L10.073 17.0917C10.1979 16.883 10.6745 16.8816 10.6374 16.8624L10.8036 16.9434L10.9245 16.8514C10.9588 16.8253 11.0303 16.9173 11.0687 16.9585L11.1223 16.7209C11.1374 16.655 10.9327 16.6302 10.8572 16.6124L10.2556 16.4709C10.007 16.4119 9.74195 16.3198 9.77079 16.0438C10.2172 15.8735 10.4822 15.559 10.7006 15.1703L11.0055 14.7912C11.3503 14.3627 11.7843 14.055 12.2169 13.7227C12.835 13.2475 12.9243 12.4454 13.497 12.4495L14.0903 12.0127C14.1439 11.9729 14.2469 11.7985 14.2194 11.7422L14.0889 11.4744C14.0313 11.3549 14.3128 11.1763 14.446 11.1983C14.4282 11.1914 14.2785 11.1777 14.2771 11.142L14.2661 10.9373L14.2593 10.8069C14.2579 10.7753 14.284 10.6695 14.3128 10.6819L14.5738 10.7876L14.3884 10.5102C14.2634 10.3234 14.2963 10.0501 14.3513 9.82211L14.5079 9.16973C14.4021 8.95822 14.2016 8.60799 13.9653 8.48576C13.6398 8.3182 13.1262 8.2097 13.0025 7.84024C12.9215 7.60264 12.8693 7.52572 12.6908 7.34718C12.4779 7.13292 12.7622 6.65222 13.0273 6.58767L12.8006 6.04516C12.743 5.90644 13.0218 5.62763 13.1591 5.55484L13.9035 5.16753C14.2785 4.9725 14.5449 4.70468 14.7963 4.34896L15.6107 4.06191C16.5996 3.31614 17.6682 2.91097 18.7065 2.2009C19.5512 1.62269 20.4577 1.21752 21.382 0.78077C21.6114 0.672268 21.7474 0.640679 21.9685 0.747807L22.8448 0.466253L23.721 0.128387C24.1234 -0.0268117 24.3611 -0.0625211 24.7841 0.140748L25.512 0.489601C25.6411 0.551406 25.7771 0.60909 25.8348 0.681882C25.8925 0.754675 25.8746 1.02799 25.7867 1.05134L25.3815 1.15709C25.2703 1.22164 25.4749 1.58011 25.6205 1.57736C25.8499 1.57324 26.0339 1.59385 26.2345 1.67762L25.4804 2.32451C25.4708 2.41791 25.707 2.46186 25.7853 2.46873L26.2619 2.50993C26.3196 2.51542 26.4899 2.59783 26.4913 2.65551C26.4927 2.72693 26.3718 2.8217 26.299 2.86428L25.6741 3.22686C25.2634 3.46447 24.7278 3.67872 24.4009 3.98225C24.1248 4.23909 24.107 4.29265 23.6839 4.31051C23.4298 4.32149 22.9917 4.53575 22.728 4.66211L21.2392 5.37767L19.6982 6.17838C19.4894 6.28688 19.2518 6.57119 19.0911 6.74149L18.4772 7.38838L18.7326 7.37877L18.804 7.85398L18.4772 8.48438L18.1503 9.10106L18.3013 9.21231C18.3247 9.22879 18.414 9.13951 18.4428 9.13951L18.9936 9.14364L19.1817 9.4348C19.5979 9.09419 19.9179 8.86483 20.3808 8.6698C20.7846 8.50087 20.4659 8.03664 21.426 8.08334L22.7829 7.39662C23.0535 7.26065 23.2637 7.19198 23.5974 7.15764L23.5521 7.39387L23.699 7.3513C23.7306 7.34168 23.7403 7.37877 23.7677 7.46804L24.8116 6.98459C24.9297 6.99283 25.0093 7.25653 24.9983 7.42272L25.6246 7.19885L25.8677 7.46667L26.0573 7.22494C26.0985 7.17275 26.2139 7.31559 26.2276 7.38975C26.2413 7.46392 26.31 7.64247 26.2592 7.66444L25.9694 7.7908L25.9076 7.99269C25.8883 8.05587 25.6768 8.01604 25.6109 8.02154L25.1728 8.0545C24.986 8.49812 24.427 8.29622 24.2883 8.55718L25.4818 8.45554L26.1754 8.52421C25.8719 8.72886 25.5601 9.10518 25.2085 9.24527L23.5851 9.89353C23.1936 10.0501 22.9272 10.2753 22.614 10.5761L21.5908 11.1461L20.9535 11.7436C20.856 11.8356 20.6019 11.8919 20.4838 11.9661L19.0059 12.8972C18.7848 13.0373 18.587 13.0936 18.2725 13.1953L18.2423 14.2515L18.1049 14.7294C17.9168 15.3873 18.0528 16.1647 18.4099 16.7484C18.517 16.9242 18.5678 16.9777 18.5458 17.203C18.5184 17.4763 19.2669 18.472 20.0044 18.2028L21.062 17.8155C21.7597 17.5601 22.4561 17.1755 23.0467 16.736L25.0231 15.2678C24.986 15.6482 24.7813 15.8158 24.6261 16.1358C24.6426 16.1784 24.8102 16.2265 24.8706 16.2031C25.3925 15.9943 25.8925 15.9202 26.516 15.8845C26.5778 15.9875 26.4734 16.144 26.3457 16.269L25.5587 17.0395C25.523 17.0395 25.5367 17.0849 25.5862 17.1686L25.2689 17.8155L26.5256 16.8129L26.5311 16.8157ZM15.071 11.2065L15.5654 10.7821C15.413 10.8041 15.2358 10.7821 15.1342 10.7258L14.7908 10.9428C14.6301 11.0445 14.5408 11.1571 14.5381 11.3947L15.071 11.2052V11.2065ZM12.9668 14.18L13.3253 13.8875L13.1234 13.8243C13.1042 13.8188 13.1756 13.7694 13.1852 13.7501L13.2388 13.6389C13.1303 13.5167 12.8748 13.6224 12.7361 13.7968L12.8199 13.9136C12.8432 13.9465 12.8144 14.0647 12.8075 14.0921L12.9668 14.1787V14.18ZM24.1674 19.0942C24.3322 18.9376 24.5533 18.8223 24.7758 18.7591L24.563 18.7206L25.0244 18.3828L24.9544 18.3086L24.4682 18.6973C24.2471 18.8744 24.0987 19.0049 23.824 18.8882C23.8405 18.9308 23.8803 19.053 23.8529 19.0846L23.7554 19.1958L24.1674 19.0928V19.0942Z" fill="var(--fill-0, #D75C2A)"/>
<path id="Vector_3" d="M30.7092 30.0955C30.6199 30.1792 30.5073 30.3454 30.4935 30.4388L30.4592 30.6737C30.451 30.7327 30.282 30.7698 30.2573 30.7547C30.1886 30.6448 30.1543 30.5597 30.0994 30.5597H29.8604L30.1268 30.6352L29.5555 31.0047C29.5129 31.0321 29.3783 31.1242 29.3371 31.0981L29.1201 30.9566L28.5611 30.8783L27.9746 30.763C27.8565 30.7396 27.5626 30.7424 27.4554 30.6915C27.417 30.6737 27.4623 30.5322 27.498 30.502C27.4156 30.2946 27.1327 30.2026 26.8841 30.366L25.8114 29.6161C25.8911 29.9018 25.8925 30.0941 25.8952 30.2919L25.8142 30.3468L25.6617 30.1065L25.9254 30.6819C25.8458 30.708 25.6397 30.7767 25.6576 30.8371L25.7496 31.1434C26.0806 32.2463 25.4681 32.9481 25.8746 33.1637L25.7991 33.5552L25.7922 34.2735L25.4323 36.5863C25.4049 36.7608 25.2414 37.089 25.317 37.236C25.3403 37.2813 25.317 37.4104 25.3074 37.4489C25.2977 37.4873 25.1316 37.409 25.1206 37.3719C25.0876 37.2648 25.1206 37.0354 25.137 36.9228L25.0134 36.3446L24.8088 36.585C24.6701 36.747 24.5643 37.0973 24.269 37.1288C24.0905 37.1481 23.824 36.8377 23.7416 36.6907C23.71 36.9668 23.6207 37.3033 23.2733 37.3623C22.989 37.4104 23.0631 36.8061 22.7706 36.6358L22.4712 37.273C22.0811 36.8033 22.0797 36.3528 22.022 35.8254C21.9808 35.4546 21.941 35.0495 22.2212 34.7363L22.0619 34.6347C22.0179 34.6072 22.0193 34.4905 22.0083 34.4136L22.022 34.0839L22.0468 33.106L22.1429 32.1488L22.2555 31.4181C22.3256 30.9648 22.272 30.5295 22.2583 30.0392C22.2542 29.8922 22.4739 29.6683 22.5604 29.5269L22.6621 29.3634C22.6895 29.3195 22.5632 29.2769 22.4368 29.2178L22.7816 29.042L22.625 28.4638C22.5893 28.3306 22.7184 28.0449 22.7486 27.9103L22.8214 27.5834C22.7376 27.2167 22.6772 26.7594 22.9931 26.4943L22.9903 26.9132C23.2224 26.4984 22.9821 26.1716 23.2801 25.9697L22.8997 25.8406L23.1661 25.6126C23.2843 25.298 23.3859 24.8009 23.7141 24.6154L24.8994 23.9452C25.1906 23.7804 25.7867 23.9892 26.0174 24.1979C26.5215 24.6553 26.7055 25.2582 27.0626 25.7925C27.5021 26.4531 28.0254 27.008 28.4924 27.6178C28.6421 27.512 28.7108 27.4159 28.7328 27.2717L29.0143 26.9544L29.1105 27.2044L29.642 26.2842C29.8274 25.9628 29.9153 25.4464 30.3013 25.3763L30.6556 24.7981L30.3892 24.6237C30.5814 24.5001 30.8177 24.4053 31.0649 24.3778L32.165 24.2556C32.3051 24.2405 32.5015 24.3009 32.6252 24.3614L32.5002 24.0839C32.4713 24.0207 32.7172 23.9068 32.7927 23.926L33.7514 24.1691C34.092 24.2556 34.3887 24.9025 34.4326 25.4587C34.4573 25.7691 34.6441 26.0205 34.7884 26.2649C34.9408 26.5218 34.9834 27.2813 34.7609 27.3843C35.1084 27.4777 35.324 28.1122 35.0933 28.196L35.0205 29.0448C35.0713 29.0448 35.14 29.0489 35.1358 29.0269L35.0905 28.777C35.0946 28.7522 35.2443 28.8333 35.2443 28.8882L35.2416 29.1505L35.3075 30.1161L35.5946 32.5841C35.644 33.014 35.5795 33.389 35.4037 33.7584C35.4545 33.7612 35.4833 33.7653 35.4916 33.7406L35.5671 33.5277C35.7924 34.0043 35.9022 34.4877 35.9709 35.0714L35.7264 35.478C35.5589 35.2225 35.5218 35.1195 35.4559 34.8119L35.0713 34.7198L35.199 34.8943C35.1345 34.9959 35.0383 35.2088 35.0397 35.3255C35.0452 36.0301 35.0054 37.008 34.6634 37.0094C34.5507 37.0094 34.4024 36.8473 34.3859 36.7292C34.342 36.6042 34.3241 36.552 34.3379 36.6001V36.8184C34.3392 36.8706 34.2088 36.9146 34.1497 36.9421L33.5206 37.2264L33.2446 36.7113L33.0894 36.4929L32.9836 36.7978C32.8902 37.0657 32.4342 36.2567 32.3367 35.4835C32.3271 35.2857 32.4081 34.9478 32.4933 34.7967C32.3244 34.4314 32.2763 34.0345 32.2159 33.595L32.1019 32.7489L31.9068 31.3851L31.7983 30.5089C31.7393 30.0295 31.6321 29.6244 31.7571 29.1519L31.5044 28.8333L31.4714 29.2673C31.4041 29.3881 31.2174 29.6244 31.113 29.7233L30.7133 30.0982L30.7092 30.0955ZM33.2721 27.317L33.3448 26.4339L33.4053 25.9051L33.0894 26.2265L33.1924 26.85L33.2707 27.317H33.2721ZM30.9262 27.2607L30.6707 26.8267C30.418 26.9146 30.3699 27.1439 30.3988 27.3307L30.6639 27.4131C30.6872 27.339 30.6899 27.3033 30.7188 27.2991L30.9262 27.2607ZM29.1105 27.5628C29.1379 27.512 29.0967 27.409 29.0651 27.3761C28.9841 27.5244 28.9443 27.4914 28.9525 27.3486C28.9457 27.2085 28.9113 27.2016 28.8756 27.3252C28.8289 27.453 28.8014 27.6288 28.7259 27.6549L28.4512 27.751L28.7561 27.8265L28.752 27.729C28.7479 27.6425 29.0212 27.729 29.1105 27.5628ZM33.9794 28.0545C34.1112 27.9447 34.2307 27.8417 34.2733 27.7483C34.3255 27.6315 34.2335 27.4063 34.1675 27.3074L33.8846 27.4887L33.9794 28.0545ZM22.8516 29.6203C22.8406 29.5845 22.8544 29.4499 22.8914 29.4472L22.9999 29.4376L22.7953 29.086L22.7101 29.8606L22.9148 29.8373C22.9491 29.8331 22.9011 29.7329 22.8516 29.6216V29.6203ZM32.9232 32.1144C32.7172 32.2161 32.7927 32.2724 33.0029 32.2243C32.9301 31.9441 32.8669 31.7532 32.724 31.4703L32.6306 32.0457L32.9246 32.1158L32.9232 32.1144Z" fill="var(--fill-0, #D75C2A)"/>
<path id="Vector_4" d="M8.06908 20.0405C7.72022 20.5184 6.14074 20.344 5.60784 20.1572L5.12438 19.9883L4.55439 19.9127L5.38122 20.3495C4.98429 20.4621 4.60796 20.0817 4.44864 19.9814C4.12587 19.7795 3.66988 19.5968 3.33064 19.4169L3.02299 19.145C2.35823 18.7014 1.84868 18.0874 1.46136 17.3801C1.38994 17.2496 1.24161 17.0972 1.10426 16.9598L1.49844 18.1176C1.28281 18.244 1.10151 18.0476 1.03009 17.8031L0.847425 17.1768C0.835064 17.1356 0.947687 17.0271 0.929832 16.9873C0.906483 16.9379 0.826823 16.8431 0.784246 16.8074L0.672995 16.7167C0.653767 16.7016 0.694971 16.6069 0.715573 16.6206L0.884508 16.7332C0.754029 16.4063 0.664755 16.1097 0.712826 15.7828L0.505433 15.8748C0.701838 16.1042 0.568612 16.4201 0.612563 16.6261L0.763644 17.3169C0.352979 17.115 0.306282 16.7648 0.311775 16.394L0.324137 15.64L0.0741668 15.6812C0.0961422 15.4051 0.0672995 15.2224 0 14.8475L0.193658 15.1236L0.0879014 14.6607C0.0604322 14.5385 0.0453242 14.3366 0.0425773 14.2487C0.157948 14.43 0.175803 14.4643 0.277439 14.5742L0.00274692 13.8627L0.0961422 12.4371L0.148334 11.8671C-0.00549383 11.5842 -0.00824075 11.2917 0.167562 11.006C0.130479 10.7794 0.148334 10.5404 0.273319 10.3481C0.152454 10.1709 0.086528 9.96217 0.341992 9.72869L0.609816 9.97728L0.894122 9.00626L0.572733 8.92385C0.670248 8.42392 0.899616 8.04485 1.29517 7.73446C1.51905 7.56003 1.10976 7.21804 1.24985 7.14525L1.5163 7.00791L1.66463 6.57665C1.69073 6.50111 1.45312 6.40497 1.335 6.37613L1.36659 5.96272L1.87752 5.56168C1.97229 5.48751 2.05882 5.30347 2.0753 5.17574C2.13573 5.19085 2.36098 5.16063 2.42553 5.08921C3.24411 4.18961 4.97055 3.29138 6.20392 2.95627C6.58574 3.06614 6.91674 2.94665 7.21616 2.69531C7.79713 2.9906 8.08831 2.75162 8.28196 2.91644L8.36849 2.71454C8.3836 2.67883 8.48386 2.72828 8.5182 2.75574C8.61297 3.0785 8.87118 3.24606 9.15548 3.41225L9.43017 3.57157C9.81337 3.14717 10.6306 3.53448 10.7281 3.72951C10.7789 3.8284 10.658 4.05364 10.6045 4.18275C10.6155 4.25966 10.7144 4.45469 10.6841 4.52885C10.6512 4.61263 10.4864 4.69366 10.393 4.73624L10.1073 4.91204C10.0194 4.96561 9.86007 5.07136 9.83122 5.15789C9.76118 5.36528 10.0153 5.47378 10.0675 5.83774C10.0784 5.91328 9.90951 6.02727 9.81749 6.04513L8.33278 6.33355C7.91113 6.41596 7.47025 6.64532 7.10079 6.8376C6.04048 7.38698 5.55977 8.4198 5.16284 9.54327L4.88814 10.3234C4.91287 10.5665 4.89638 10.8645 4.69998 11.0252C4.72608 11.3974 4.65054 11.7888 4.41842 12.1034L4.38958 12.3341C4.38408 12.3808 4.5489 12.433 4.56126 12.4453C4.51868 12.661 4.48435 12.8725 4.50357 13.0744L4.61757 14.2308C4.70273 15.0988 5.31804 16.4915 6.08168 17.0134C6.63381 17.4872 7.28758 17.8086 8.04161 17.7729L8.37673 17.9624C8.50996 18.038 8.82173 18.1547 8.98792 18.174C9.63482 18.2481 10.7405 18.0682 10.257 18.3333L10.0922 18.4239C10.0537 18.4445 10.0784 18.5146 10.1032 18.6547L9.72822 18.6986L9.84771 18.7632C9.86831 18.7742 9.87243 18.7893 9.8532 18.8057C9.58263 19.0461 8.39596 18.6423 7.88915 18.9843L9.81749 19.1848C9.94797 19.2576 9.87243 19.3689 9.69525 19.3455L9.93423 19.4622C9.81886 19.7644 9.55516 19.9306 9.20767 19.9704L8.24076 20.083C8.2284 20.0226 8.21329 19.818 8.27235 19.8015L8.5388 19.7287L8.77778 19.6628C8.82723 19.649 8.78877 19.4993 8.77504 19.4609L8.27372 19.6106C8.09792 19.4828 7.92349 19.4348 7.70374 19.4059L7.12826 19.3304L6.72583 19.2604L7.40432 19.7163L8.0732 20.0432L8.06908 20.0405Z" fill="var(--fill-0, #D75C2A)"/>
<path id="Vector_5" d="M46.6097 30.5968L46.1084 29.3497C45.7156 29.5598 45.467 29.7892 45.1689 30.0817L44.2817 30.9539C43.7776 31.4497 43.3134 31.8645 42.7228 32.2133L42.1611 32.6624C42.4399 32.624 42.6871 32.5841 42.8066 32.7792L42.2998 33.4261L42.1968 34.0386C42.0828 34.4053 42.0883 34.7391 42.0594 35.1222L41.9963 35.9944C41.9633 36.46 41.7957 36.9668 41.3851 37.1797C41.4359 36.8528 41.7628 36.6097 41.6982 36.3982L41.4345 35.5274L41.2409 35.6304L41.1063 36.8734C41.0843 37.0712 41.2587 37.2154 41.0142 37.3857L40.5349 37.7208C40.1654 37.6398 39.6998 37.4708 39.5721 37.0986L39.557 36.3419L39.5433 35.0769L39.2933 35.011C39.1353 35.3832 38.884 35.5796 38.542 35.7087L37.8484 35.9724L37.9844 35.6332C37.7591 35.8021 37.4927 35.7994 37.343 35.5329C37.7385 35.3859 37.9267 35.3365 38.2371 34.978L37.8498 34.9863L37.093 35.0055L37.7028 34.3435C38.0462 33.9699 38.3415 33.5881 38.5159 33.1211C38.4198 32.7874 38.6615 32.5704 38.9939 32.488L39.1779 32.0169L39.6064 31.712C39.4018 31.7724 39.3853 31.7051 39.4348 31.6008C39.5185 31.5733 39.6215 31.5486 39.627 31.5197L39.6559 31.3412C39.7067 31.2134 39.7891 31.0596 39.8688 30.9882C39.9553 30.9099 40.2547 30.9374 40.333 31.0115C40.2314 31.2615 40.2877 31.131 40.355 30.9731L40.3316 30.5666L40.5473 30.2163L40.5418 30.0405C40.5404 29.9856 40.4072 30.0172 40.2808 30.0776C40.1696 29.943 40.2314 29.6601 40.4676 29.5502L40.5404 29.8963L40.8219 29.4266C40.7107 29.2563 40.697 29.075 40.8865 28.9802L40.914 29.6244L41.028 29.4939C41.0582 29.4596 41.1296 29.5131 41.2463 29.5804C41.2395 29.5955 41.2628 29.5406 41.2738 29.5145C41.2848 29.4884 41.1969 29.4376 41.1378 29.406C41.0074 29.3813 41.0225 29.3099 41.1777 29.2989C41.2546 29.3483 41.1172 29.1753 41.1282 29.1753H41.2944C41.0046 28.9184 41.0898 28.5105 41.234 28.2509C41.3576 28.0298 41.3123 27.5986 41.6131 27.4063C41.9619 27.1824 42.0127 26.7415 42.216 26.4023C42.4193 26.0631 42.7626 25.7705 43.1005 25.537L42.8917 25.4065L43.4425 24.9135C43.6746 24.4973 43.9727 24.4012 44.4369 24.4383L45.5508 24.2309C46.4188 24.2913 46.9091 24.772 47.2937 24.6374C48.24 24.3078 48.6946 24.6003 48.9212 24.1869L49.5791 24.0139C49.619 24.0029 49.7563 24.0304 49.7975 24.0455C49.8387 24.0606 49.7549 24.1622 49.7137 24.1691L49.5352 24.202L49.9417 24.2515L49.8154 24.6017L49.6492 25.0838L49.5915 25.2513C49.5791 25.2884 49.4253 25.2719 49.3868 25.3049C49.0449 25.6071 48.6356 26.1194 48.3334 26.5547C48.4529 26.5575 48.7221 26.5396 48.843 26.4888L49.4734 26.2169C49.4074 26.3556 49.2948 26.552 49.2028 26.6152L48.262 27.2607C48.4433 27.464 48.7482 27.7071 48.8224 27.9598L49.1602 29.1093L49.027 29.6505L48.9295 29.77C48.9048 29.8015 48.935 29.8771 48.9611 29.9416L49.2564 30.6558C49.3553 30.8948 49.4349 31.2134 49.6313 31.37C49.7398 31.4565 49.8538 31.5472 49.8991 31.6186C49.9513 31.701 49.8813 31.9318 49.8209 32.0265L49.6972 31.815L49.6808 32.33C49.6725 32.5883 49.7714 32.9 49.8181 33.1569L49.9788 34.0414L50.0585 34.4809L50.1889 35.033C50.3016 35.5096 50.4224 35.9793 50.4224 36.4545C50.6559 36.7196 50.5515 37.067 50.715 37.3898C50.8922 37.74 50.9416 38.0133 50.9334 38.3869C50.9292 38.5407 51.1517 38.8278 50.8056 38.9102L50.8867 39.0159C50.9155 39.0544 50.7328 39.2041 50.7493 39.1684L50.5955 38.5023L50.5268 38.0422L50.1285 36.243L50.0035 35.7609L49.8717 35.3598C50.0983 35.3859 50.053 35.3599 50.0543 35.3049C49.9294 35.261 49.8332 35.2459 49.8236 35.2005L49.7577 34.9011C49.7316 34.7816 49.6148 34.5852 49.5173 34.4232C49.4349 34.577 49.4747 34.7789 49.483 34.9574L49.494 35.1937C49.6808 35.5096 49.6684 35.8955 49.5929 36.2512L49.6918 35.9848L49.8978 36.7237L50.1505 37.6219C50.2123 37.8403 50.1862 38.06 50.1079 38.3306L50.2892 38.3457C50.3455 38.3512 50.2768 38.5641 50.2494 38.6245C50.3812 38.8031 50.5612 39.1341 50.3538 39.3071C50.3716 39.5324 50.3057 39.7713 50.2041 39.9526L49.7851 39.5887C49.7769 39.5351 49.7261 39.3511 49.6849 39.3785L49.4555 39.531C49.4322 39.5406 49.3553 39.3566 49.3168 39.2481L49.1218 39.7837C48.4872 39.2618 48.549 38.6424 48.5683 37.9117L48.3279 37.6631L48.1535 36.6935L47.9461 35.8351L47.7675 34.8791C47.4049 33.9081 47.1563 32.9879 46.997 31.9647L46.7416 31.278L46.9393 31.0212C46.7814 30.8921 46.6688 30.7657 46.6015 30.5995L46.6097 30.5968ZM41.2587 29.0365L41.5375 28.7962L41.5719 28.5709L41.7861 29.0365C41.7779 29.0571 41.8095 28.9802 41.8205 28.9555C41.8314 28.9308 41.9029 28.9033 41.9468 28.8827L41.7559 28.7165C41.6199 28.597 42.1473 28.2427 42.0059 27.8499L41.8534 28.1878C41.8095 27.9749 41.7614 27.9996 41.7037 28.0875L41.6268 28.56L41.4098 28.2784L41.2972 28.5091C41.2848 28.5352 41.3411 28.6067 41.37 28.6575C41.3727 28.7715 41.3507 28.8127 41.2615 28.6451L41.2587 29.0393V29.0365ZM44.6608 30.1133L45.7032 29.1931L45.9944 28.9486C45.8049 28.9239 45.57 28.9033 45.4656 28.9541L44.9368 29.2123C44.5262 29.8125 43.8106 30.2452 43.757 30.4526C43.7488 30.4855 43.7872 30.5569 43.8188 30.5405L43.9988 30.4512C44.1691 30.3674 44.4863 30.2671 44.6621 30.1119L44.6608 30.1133ZM48.696 31.9867L48.8059 31.8603C48.88 32.1872 48.8663 32.4537 49.1561 32.683L48.7262 30.3674C48.6878 30.1586 48.6053 29.987 48.4735 29.8441L48.5738 30.421C48.6617 30.925 48.7688 31.5431 48.4433 31.837L48.6356 31.8315C48.6781 31.8315 48.6974 31.9771 48.696 31.9881V31.9867Z" fill="var(--fill-0, #D75C2A)"/>
<path id="Vector_6" d="M11.9106 34.5289L11.6758 34.6196C11.6195 34.6415 11.4505 34.5234 11.4244 34.4602L11.0014 33.4439C10.8366 33.253 10.7583 33.1211 10.68 32.8451L11.0934 32.4028C10.794 32.249 10.5413 31.8603 10.6471 31.4538C10.7075 31.2203 10.5358 30.866 10.566 30.6668L10.6594 30.0501L10.6992 29.4019C10.7047 29.3071 10.7185 29.0365 10.7968 28.9912L11.1195 28.8044L11.1072 29.0297C11.2047 29.0613 11.3146 29.1025 11.2926 29.156C11.2555 29.2425 11.1703 29.4431 11.217 29.3304L11.1813 29.1148C11.1772 29.0887 11.1058 29.1272 11.1058 29.1533L11.103 29.27C11.0921 29.2838 11.0179 29.3524 11.0385 29.3717L11.1758 29.4953L11.158 29.9691C11.158 29.9979 11.1621 30.0996 11.1868 30.1023L11.3228 30.1133C11.3626 30.1161 11.3091 29.9746 11.3091 29.9293L11.2995 29.3881C11.5302 29.3703 11.2459 29.145 11.489 28.6478L11.7074 28.2029L11.7184 27.8169C11.6936 27.8087 11.5055 27.8609 11.5 27.9213L11.4684 28.2344L10.9822 28.6176C10.8009 28.0312 11.283 27.4571 11.6277 26.9915C11.728 26.8569 11.7142 26.5135 11.7293 26.324L12.1359 25.6126C12.1949 25.6112 12.3089 25.6194 12.3034 25.5837L12.2636 25.3214H12.6303C12.7059 25.3214 12.8734 25.25 12.894 25.2143L12.574 24.93L13.2086 24.4259C13.3198 24.154 13.4887 23.974 13.8088 23.9218L14.5422 23.801C14.7468 23.7667 15.0957 23.8079 15.3031 23.7543C15.7014 23.6499 15.9665 23.9754 16.2631 24.0194C16.7026 24.0853 17.0488 24.1457 17.4484 24.36L18.4222 24.8805L17.7437 24.8585C17.8096 25.0632 17.5198 25.1497 17.5871 25.2568L17.7437 25.5054L17.8193 25.3186L17.9154 25.4244C17.9401 25.4519 18.0143 25.4024 18.1077 25.3516L17.9058 25.1703C18.1118 25.1099 18.2093 25.0645 18.4318 24.9368C18.5046 24.8215 18.5596 24.8723 18.5266 25.0027C18.9318 25.2472 19.2243 25.5988 19.4784 26.0342L19.8575 26.6838C20.0031 26.9324 20.1816 27.0753 20.0992 27.3184L20.4261 27.3211C20.6555 27.9282 20.742 28.4748 20.7447 29.0956L20.8683 29.2604C20.9013 29.3044 20.8422 29.4019 20.8203 29.4499C20.937 29.7768 20.8464 30.171 20.8601 30.5391C20.8903 31.3673 20.9631 32.1872 20.7063 32.9646C20.6788 33.047 20.6719 33.2159 20.6623 33.3464C20.4879 33.6815 20.3684 34.0001 20.2736 34.3723C20.2008 34.6635 19.9646 34.9176 19.8506 35.1277L19.5993 35.592L18.4813 36.8322C18.2038 37.1398 17.7135 37.3225 17.3386 37.5106C16.7864 37.7867 16.1986 37.7826 15.6039 37.7359C14.8938 37.681 14.1645 37.5697 13.5588 37.1563L13.1907 36.905C13.0286 36.7951 12.9174 36.6687 12.7993 36.5135L11.8955 35.3173C11.7046 35.0646 11.7445 34.7336 11.9106 34.5303V34.5289ZM17.0364 26.6289L16.8922 26.828C16.8688 26.8596 16.8125 26.7429 16.8098 26.7058L16.7974 26.5369C16.704 26.611 16.7576 26.8844 16.8606 26.9887L17.0185 27.2263L17.0364 26.6289ZM14.1356 32.1268C14.2084 32.4015 14.4474 32.65 14.5779 32.8973C14.8402 33.3917 14.7111 33.8367 15.1602 34.3078C15.3621 34.5193 15.5737 34.875 15.8401 34.9876C16.7837 35.3846 17.4828 34.191 17.7712 33.1266L18.0102 32.2449C18.1283 31.8081 18.1819 31.4249 18.1022 30.9923C18.4401 30.4718 17.9484 29.9993 17.9539 29.1066C17.638 28.7316 17.7217 28.3306 17.4814 28.0037L17.2822 27.7318C17.0831 27.6576 16.7809 27.4791 16.6367 27.3541L16.8263 27.1577C16.8565 27.1261 16.7397 26.9723 16.7177 27.0107C16.7013 27.0396 16.5845 27.1439 16.5543 27.1316L15.9775 26.9091C15.7962 26.839 15.6135 26.8074 15.3841 26.7951L15.0586 26.7786C14.9831 26.7745 14.8732 26.9448 14.8347 27.0121L14.7647 27.1357C14.7523 27.1577 14.685 27.1522 14.6768 27.1275L14.6122 26.9558L14.1604 27.1027C13.7058 27.6466 13.5547 28.2949 13.5396 28.9843C13.5341 29.2288 13.508 29.5062 13.5794 29.7219C13.67 29.9938 13.67 30.1724 13.6481 30.48L13.85 30.1243L14.0134 28.8278C14.0162 28.8017 13.6453 28.2825 14.4818 27.5917L14.9062 27.8595C14.6328 28.2084 14.479 28.5627 14.4076 28.9775C14.3485 28.9953 14.2538 29.0201 14.2744 29.0393L14.3678 29.1272C14.3815 29.1395 14.3829 29.1368 14.4529 29.167L14.3801 29.4774C14.5339 30.0515 14.4282 30.8412 14.3018 31.4744L13.9887 31.5719L14.1343 32.1254L14.1356 32.1268ZM11.6497 30.2932L11.8804 30.2246C11.9999 30.0089 11.9724 29.6354 11.739 29.4815C11.7046 29.5461 11.6813 29.5763 11.6964 29.5996L11.7568 29.6848L11.4423 30.0117C11.5439 30.024 11.7252 30.0336 11.7129 30.0749L11.6497 30.2932ZM12.1771 31.3741C12.2554 31.3563 12.4078 31.3206 12.3872 31.2794L12.3048 31.1145C12.2293 31.2835 12.2142 31.2079 12.2059 31.1269L12.184 31.0637L12.0974 31.2533C12.0864 31.2794 11.9862 31.245 11.9944 31.2189L12.0301 31.0912L11.728 30.969L11.9148 31.4208C11.9683 31.5513 12.1551 31.7175 12.3007 31.9125L12.2911 31.5692L12.3845 31.7312C12.3982 31.7546 12.4999 31.6983 12.4861 31.6983L12.3707 31.4964C12.3543 31.4675 12.2815 31.4964 12.1318 31.5252C12.129 31.5348 12.1565 31.4359 12.1743 31.3727L12.1771 31.3741ZM19.7723 33.6458C20.0498 33.4714 20.1885 33.1417 20.2022 32.8313C20.4179 32.6418 20.5456 32.3589 20.4797 32.1062L20.1212 32.271L20.2297 32.341C20.2558 32.3575 20.1294 32.4468 20.1198 32.4797L19.771 33.6458H19.7723ZM19.8863 34.7404L20.1239 34.4259C20.2022 34.3229 20.1212 34.0098 19.9632 33.9067L19.635 34.4369C19.5938 34.5028 19.3987 34.5838 19.3466 34.5962L19.8863 34.7404ZM17.4484 35.9642L17.6792 35.7925C17.5679 35.7252 17.4896 35.6689 17.4443 35.6812L17.2094 35.743C17.2685 35.8845 17.3523 36.015 17.5336 36.2457L17.4498 35.9642H17.4484Z" fill="var(--fill-0, #D75C2A)"/>
<path id="Vector_7" d="M9.33266 37.7688L8.32591 37.7194L7.67626 37.7262L6.77665 37.7798L7.40981 38.0243L7.51694 38.0847C7.53068 38.093 7.5499 38.0806 7.55677 38.0627C7.56501 38.038 7.59248 37.9625 7.61583 37.9748C8.05946 38.2138 8.25312 37.8897 8.48111 38.1067L8.7146 37.9529C8.77366 37.913 8.9632 38.1273 8.90826 38.1204L8.61846 38.2083L9.83946 38.2619L9.95483 38.4706L9.00577 38.7769L8.37398 38.8978C8.27646 38.8195 8.15285 38.6973 8.04984 38.689C7.91524 38.678 7.73258 38.8456 7.65154 38.9321C7.38372 39.0049 7.04447 38.9294 6.75192 38.8964L4.87578 38.6877C4.24124 38.6162 3.58747 38.4075 3.0999 38.0188C2.81971 37.7963 2.42553 37.6219 2.20852 37.365L1.61656 36.6632C1.54651 36.5794 1.49432 36.3926 1.44076 36.2979C1.10014 35.6936 0.703208 34.9986 0.523285 34.2913L0.575476 33.4576L0.645523 32.7159C0.689474 33.128 0.699088 33.4425 0.940817 33.7323C0.932576 33.7625 0.911974 33.8271 0.918841 33.8325C0.928456 33.8408 0.990261 33.8463 1.07267 33.8586L1.05481 33.7227C1.04932 33.6801 1.15233 33.6307 1.2471 33.5991C1.32676 33.1513 1.23336 32.683 0.965539 32.2957C1.05893 32.2297 1.17568 32.1528 1.13722 32.1199L0.966912 31.9702L0.868023 32.7791L0.789736 32.2998L0.737545 32.4083C0.722437 32.4399 0.635909 32.4069 0.635909 32.3726L0.620801 31.7669L1.08366 31.7751L1.28418 31.4991C1.15096 31.3439 1.15645 31.0898 1.26221 31.0074C1.28556 31.0156 1.4229 31.0692 1.41878 31.0651C1.41466 31.061 1.41603 31.0239 1.41878 31.0046C1.42153 30.9854 1.36934 30.9415 1.35011 30.9387C1.31989 30.9332 1.20864 31.0019 1.20864 30.9703L1.20589 30.7918L0.874891 30.7368L1.06168 30.0171C1.06855 29.9883 1.22787 30.0281 1.2265 29.9979L1.221 29.829C1.20452 29.2714 1.32401 28.7179 1.71407 28.3292L1.84455 27.8705C1.81846 27.7111 1.79648 27.5106 1.83357 27.3595C1.86103 27.2497 2.02722 27.1412 2.18929 27.0862C2.42415 26.872 2.55601 26.5726 2.60957 26.2608C2.8513 26.0273 3.12874 25.7375 3.26196 25.4752C3.23175 25.1648 3.28257 24.8036 3.58885 24.6868C3.92809 24.5577 4.22064 24.3352 4.49121 24.0949C4.87441 23.724 5.36748 23.5318 5.90862 23.5331C6.38384 23.242 6.96756 23.3024 7.35213 23.6361C7.59935 23.4851 7.96606 23.4864 8.21054 23.6416C8.73795 23.974 9.11565 23.8023 9.31617 24.1072C9.37111 24.191 9.28321 24.4012 9.22003 24.5344C9.12252 24.7418 9.75019 24.9258 9.70761 25.2019C9.66503 25.4779 9.31343 25.6166 9.32991 25.6578L9.40957 25.8584L9.48511 26.0479C9.50159 26.0891 9.356 26.1646 9.30793 26.1756L7.54441 26.5684C7.12001 26.6632 6.56101 26.9379 6.28907 27.2716C5.84681 27.8155 5.45538 28.3621 5.23563 28.9953L4.92385 29.8908C4.65328 30.6695 4.51181 32.9288 4.66564 33.4796C4.71371 33.6513 4.80711 33.7543 4.78376 33.9534C4.75903 34.1635 4.92797 34.4204 5.00626 34.6236C5.37846 35.596 6.12425 36.2525 7.1104 36.5643L8.60884 37.0382L8.54566 37.3417C8.63631 37.3307 8.81623 37.3376 8.89177 37.3843L9.39583 37.6988L9.44528 37.7029C9.63344 37.5422 9.8944 37.4474 10.2021 37.6329L9.51533 37.9831L9.00028 37.9391L9.35051 37.7839L9.3354 37.7688H9.33266Z" fill="var(--fill-0, #D75C2A)"/>
</g>
</svg>
