<?xml version="1.0" encoding="UTF-8"?>
<svg id="Capa_1" xmlns="http://www.w3.org/2000/svg" version="1.1" viewBox="0 0 626.2 436.24">
  <!-- Generator: Adobe Illustrator 30.4.0, SVG Export Plug-In . SVG Version: 2.1.4 Build 226)  -->
  <defs>
    <style>
      .st0 {
        fill: #d75c2a;
      }
    </style>
  </defs>
  <path class="st0" d="M388.86,174.04c-.02-.53-.04-1.06-.06-1.6.63-.08.56-.5.46-.94.08-.31.17-.62.25-.93.09.04.19.14.22-.05-.07,0-.15,0-.22,0-.01-.13-.02-.26-.03-.39.65-.45.34-1.13.39-1.72.02-.28.04-.56.06-.83.59-.44,0-.84-.05-1.25-.05-.42-.4-.8-.23-1.23.8-2.09.93-4.26.88-6.47,0-.38.14-.77.51-.95.27-.13.58-.08.75.2.7,1.12.8.39.98-.29.33-1.25.24-2.51.21-3.77-.08-2.95.57-5.84.65-8.8.09-3.31.31-6.67,1.22-9.91.09-.31.28-.69-.12-.86-.31-.13-.61.14-.88.33-.3.2-.13.78-.67.81-.52-.57.13-1.46-.48-2.04-.66.62-.46,1.37-.53,2.06-.03.28-.04.63-.42.61-.42-.03-.28-.36-.27-.64.07-1.32,0-2.66.2-3.96.24-1.47-.14-3.14,1.52-4.66-.29,2.02-.04,3.62.87,5.07.05.08-.15.32-.23.48-.29.55-.09,1.19.34,1.28.55.13.41-.56.52-.94.41-1.44.18-3.1,1.05-4.33.74-1.05,1.42-2.28,1.65-3.33.39-1.81,1.08-2.87,2.72-3.69,1.37-.68,2.32-.65,2.97.72.1.21.14.7.52.42.55-.4,1.29-.07,1.75-.45.88-.71,1.54-1.67,2.74-1.99.41-.11.23-.75.19-1.17-.02-.21-.28-.41-.38-.31-.88.88-2.14.16-3.07.76-.36.23-.88.53-1.14.14-.33-.5-.65-1.22-.54-1.76.11-.57.85-.34,1.36-.29.89.09,1.77.27,1.83-1.16.04-.87.83-1.08,1.6-.81.75.27,1.34.11,1.97-.35,1.43-1.05,3.1-1.51,4.83-1.78.42-.06.83,0,1.09.47.31.55-.59.41-.41.92,2.22-.48,4.25.16,5.97,1.49,1.48,1.14,3.06,2.02,4.72,2.81.36.17.71.38.97.78,1.08,1.73,2.22,3.42,3.36,5.09.66.97,1.82,1.52,1.57,2.97-.01.08.27.22.4.33.94.8,1.66,1.66,1.92,2.97.34,1.68.7,3.42,2.03,4.71.37.36.27.89.46,1.32.34.77.42,1.54-.37,1.99-.78.44-1.17-.28-1.56-.8-.17-.22-.29-.55-.64-.45-.42.13-.35.54-.32.84.19,1.49.37,2.98.65,4.46.07.38.4.76.71,1.02.37.32.88.59.89-.32,0-.33,0-.74.49-.68.43.06.99.4.96.71-.11,1.2.27,2.5-.48,3.6-.54-.18-.55-.69-.89-1.03-.24,1.53.23,2.91.25,4.63.51-1.52.78-.92,1.27-.31.45.56.43,2.34,1.93,1.02.16-.14.37-.04.48.14.06.11.12.35.08.37-1.16.7,0,1.28.03,1.92.04.63,1.13,1.37.35,1.71-1.91.83-1.43,2.42-1.58,3.83-.18,1.66.42,3.32.23,4.94-.34,2.93-.41,5.83-.1,8.76.04.39-.19.98.36,1.09.49.1.65-.45.82-.82.19-.41.17-1.04.78-1.04.54,0,.67.6.93.98.34.49.26,1.03.25,1.61-.01,1.11-1.08,1.92-.76,3.07-.04.38-.08.76-.12,1.14-.54.15-.43.65-.57,1.03-.37.97-.82,1.93-1.6,2.61-1.02.88-2.17,1.61-1.7,3.25.08.28,0,.56-.19.79-2.09,2.56-2.2,5.83-3.19,8.79-.12.36-.24.71-.36,1.07-.27-.14-.95.29-.57-.68.28-.69.9-1.23.93-1.99.01-.32.67-.44.26-.8-.41-.36-.65.13-.96.3-1.02.56-1.31,1.69-1.93,2.55-1.05,1.45-2.52,2.52-3.42,4.09-.13.22-.53.41-.23.7.27.26.62.12.89-.11.18-.15.34-.33.48-.51.2-.26.4-.4.69-.15.27.24.24.48.02.73-.22.25-.73.38-.41.89-.06.07-.11.15-.16.23-.73.37-1.95,0-2.06,1.34-.09.1-.18.2-.27.3-.52,0-.66.43-.93.74-.9,1.03-1.77,2.25-3.08,2.62-1.49.42-2.82,1.18-3.42,2.39-.79,1.59-2.14,1.71-3.45,2.18-.35.13-.69.3-1.03.45-2.75,1.17-5.5,2.18-8.49.72-.29-.14-.9-.14-1.07.05-1.01,1.09-1.71.47-2.46-.3-.36-.36-.8-.65-1.21-.97-.8-.62-1.65-.99-2.68-.63-.16,0-.33,0-.49,0-.44-.53-.79-1.19-1.34-1.55-3.4-2.27-5.03-5.66-6.07-9.42-.13-.48-.13-.95-.8-.9-.03-.08-.05-.15-.08-.23-.04-2.67.15-5.35-.35-8.01-.21-1.14-.51-2.5-.1-3.48.8-1.9.03-3.55-.35-5.24-.13-.55-.38-2.04-1.66-1.5-.62.27-.98.24-1.53-.02-1.61-.75-2.64-.47-3.57,1.01-.34.54-.68.31-1.08.25-.69-.1-1.09.31-1.25.89-.17.63.32.89.78,1.18.37.24,1.3-.22,1.06.87-.12.53.07,1.11.06,1.67,0,.33-.27.53-.58.5-1.83-.17-3.61.78-5.5.05.09.62.73,1.01.14,1.54-.52.48-1.07.85-1.77.61-1.34-.47-2.66-.41-3.99,0-.26.08-.57.06-.85.02-3.99-.59-8.02-.53-12.04-1.19-3.44-.57-6.39-1.97-9.47-3.23-.62-.25-1.3-.73-1.63-1.5-.33-.76-.9-1.19-1.75-1.48-1.04-.36-1.8.73-2.8.3-.15-.07-.37.51-.21.71.88,1.07.29,2.4.66,3.55.53,1.66.1,3.17-1.27,4.17-1.07.79-1.58,1.79-1.99,2.95-.11.31-.28.59-.44.88-.31.56-.59.62-1.02.04-.46-.61-.41-1.21-.26-1.88.09-.42.03-.94-.33-1.15-.34-.19-.73.18-.95.46-.55.7-1.11,1.35-1.98,1.71-.41.16-.65.61-.74,1.14-.4,2.41-2,2.99-3.98,1.43-.43-.34-.79-1.31-1.29-.36-.42.8-1.45.17-1.56.83-.25,1.58-.8.51-1.14.15-.44-.45-.96-.89-1.03-1.61-.65.35-1.21.66-1.81.98-.17-1.33-.78-2.48-.79-3.8,0-.43-.15-1.46-.86-1.29-1.5.36-1.03-.37-.72-1.07.18-.4.22-.94-.24-.87-2.05.32-1.05-1.11-1.06-1.84-.05-2.03.81-3.95.79-5.98-.01-1.64.17-3.16,1.91-4.02.41-.2.67-.78.5-1.37-.62-2.19.12-3.96,1.71-5.46.43-.4.67-.93.2-1.36-1.03-.94-.59-1.84-.26-2.92.44-1.44,1.64-2.74,1.03-4.45-.15-.42.05-.8.51-1.04,1.38-.72,1.73-2.32,1.61-3.4-.2-1.91.86-3.27,1.55-4.66.58-1.16.89-2.19.86-3.41-.03-1.13.01-2.22.38-3.34.56-1.69,1.46-3.32,1.38-5.19-.03-.83-.03-1.56.73-2.24.74-.67,1.04-1.65,1.22-2.75.18-1.08.28-2.19.42-3.28.17-1.29.95-2.36,1.01-3.67.02-.47.12-.8-.43-.99-1.43-.49-1.61-1.67-1.32-2.88.26-1.09-.01-1.86-.89-2.43-.59-.39-.76-.83-.39-1.42.9-1.44,2.34-2.41,3.32-3.83.7-1.02,1.74-1.88,2.12-3.08.6-1.89,2.12-2.89,3.73-3.1,3.5-.46,7.09-.85,10.57-.54,5.2.46,10.42.67,15.52,2.43,3.47,1.19,6.24,2.75,8.3,5.7.22.31.43.57.52.96.46,1.87,1.85,3,3.48,3.61,1.44.54,2.41,1.52,3.39,2.55.81.85.52,1.63-.63,1.95-.55.15-.95.5-1.14.98-.29.75-.98,1.48-1,2.14-.04,1.34-1.13,2.37-.88,3.75.08.43-.06.97-.27,1.37-1.59,2.94-2.73,6.16-5.11,8.63-2.09,2.17-2.95,5.21-5.19,7.27-1.19,1.1-1.51,2.84-2.71,3.93-.87.79-1.5,1.67-1.77,2.81-.25,1.04-1.01,1.78-1.63,2.59-.44.57-1.04,4.91-.67,5.5.12.19.32.33.49.48.39.34.94.6,1.15,1.03.69,1.38,1.84,1.23,3.03,1.08.36.03.72.07,1.07.1.98.84,2.16,1.1,3.41,1.09.66,0,1.26.15,1.89.31,2.1.51,4.21,1.18,6.43.94.15.02.31.04.46.06,1.95.78,3.74,1.83,5.49,2.99.72.48,1.59.78,2.51.82.05.06.11.1.18.13.34.72.94.69,1.27.17.41-.64.58-1.45-.26-2.02ZM373.15,142.88c-.84-.04-1.48.33-1.86,1.04-.83,1.54-2.17,2.66-3.2,4.02-.48.63-.85,1.35-1.27,2.02-.23.38-.21.71.16.99.33.25.62.09.89-.13.55-.46.89-1.07,1.27-1.67.83-1.32,1.51-2.93,2.7-3.79,1.04-.75,1.29-1.44,1.3-2.5.63-.15,1.09-.5,1.24-1.16,0-.04-.2-.2-.31-.2-.85,0-.58.82-.88,1.23-.03.03-.02.09-.03.14ZM410.14,178.86c-.02,1.44-.04,2.87-.06,4.31-.25.49.04.91.15,1.36.2.81.25,1.91-.39,2.24-1.49.78-.92,1.62-.53,2.68.4,1.08.96,2.18.61,3.41-.1.35-.27.77.19.99.48.22.85-.07,1.07-.45.62-1.08,1.75-1.74,2.38-2.74.66-1.04,1.73-1.5,2.54-2.3,1.49-1.47,1.7-3.54,2.56-5.29.61-1.24,1.39-2.59,1.04-4.14.03-.27.06-.53.08-.8.67-1.07,1.34-2.27,1.71-3.35.66-1.91.64-4.08,1.32-6.05.41-1.21-.79-1.91-.82-3.03-.12-3.3.4-6.58-.7-9.91-.71-2.16-.46-4.64-1.37-6.86-.3-.73-.29-1.59-.04-2.79.76,1.97,1.8,3.55,1.88,5.17.11,2.21.94,4.24,1.09,6.41.05.84-.21,2.25.96,2.29,1.31.04.94-1.5,1.29-2.35.07-.16,0-.38.02-.56.05-.66-.02-1.19-.85-1.36-.59-.12-1.18-.95-.97-1.19.81-.89.77-2.52,1.86-2.89,1.58-.55,2.09-1.28,1.48-2.8-.01-.03.05-.09.04-.13-.26-1.39-.91-2.69-.99-4.13,0-.16-.31-.34-.51-.45-.78-.43-.79-.42-.26-1.22.13-.19.09-.35-.04-.51-.47-.55-.43-1.81-1.73-1.21-.25.12-.6-.09-.62-.42-.12-1.42-1.31-2.46-1.34-3.92-.01-.54-.49-.83-1.01-.73-.64.11-.47.62-.31,1.01.39.91.77,1.84.71,2.85-.05.84.03,1.51,1.05,1.64.51.07.78.42.61.91-.27.78-.22,1.58-.25,2.38-.01.27.03.66-.33.67-.23,0-.56-.21-.68-.42-.66-1.09-1.14-2.26-1.26-3.55-.04-.42.06-.87-.33-1.18-.8-.64-1.72-1.18-1.76-2.39,0-.26-.35-.38-.56-.28-.93.48-1.32-.27-1.9-.72-.82-.63-1.36-1.9-2.77-1.34-.12.05-.33-.14-.49-.23-.97-.55-1.73-.15-1.84,1.01-.07.7-.04,1.42-.07,2.13-.01.25-.12.48-.41.47-.3,0-.36-.26-.37-.5-.01-.28,0-.57-.01-.85-.02-.36.18-.81-.29-1-.5-.2-.78.21-1.06.51-1.47,1.58-.85,3.56-.91,5.38-.02.72.22,1.43.06,2.21-.17.85-.49,1.92.18,2.58.82.81.63,1.61.43,2.46-1.07,4.58-.69,9.27-1.02,13.9,0,.14,0,.29.05.42.22.52.58.88,1.19.82.62-.06.48-.57.55-.97.17-.97.13-1.93.08-2.9-.1-2.03.67-4,.35-6.09-.14-.93,0-1.98.08-2.98.15-1.92.64-3.8.68-5.75.03-1.58.52-3.15.8-4.73.13.02.26.03.39.05.65,3.47-1.67,6.96-.02,10.46-.11-1.26.88-2.23.82-3.47.3.39-.19,1.05.44,1.33v.85c-.74.33,0,1.61-.77,1.6-1.6-.03-1.15,1.06-1.33,1.9-.4,1.81.42,3.66-.23,5.46-.46,1.27-.67,2.53.36,3.7.31.35.64.84.1,1.38-.24.24-.24.67-.05.94.72.98.25,1.82-.32,2.58-.55.74-.73,1.51-.64,2.39.24,2.35.05,4.68-.38,6.99-.1.55-.38,1.17.18,1.57.52.38.69-.57,1.2-.47ZM353.71,132.74c-1.67,0-2.34.74-2.04,2.38.11.57.08,1.08.01,1.64-.11.93-.05,1.87-.29,2.79-.06.21-.07.48.19.62.2.11.35,0,.47-.16,1.1-1.56,2.47-2.88,3.75-4.28.14-.15.2-.42.21-.64.06-1.98-.31-2.36-2.3-2.35ZM436.6,186.69c.36-.87-.1-1.65.47-2.33.53-.65,1.66-1.23,1.21-2.15-.45-.92-1.63-.31-2.48-.44-.14-.02-.28,0-.42,0-.8-.01-1.22.31-1.18,1.18.05,1.08,0,2.17.02,3.25,0,.35-.14.89.42.86.59-.03.14-.5.18-.77.11-.74.62-1.53,1.18-1.55.85-.03.02.82.28,1.23.12.19.19.41.32.72ZM361.48,159.86c.42.04.56-.3.74-.56.72-1.04,1.26-2.11,1.64-3.37.36-1.19,2.08-1.75,2.19-3.34.01-.2.71-.31.41-.82-.16-.27-.42-.35-.73-.33-.48.04-.64.42-.7.78-.19,1.09-1,1.8-1.65,2.56-1.12,1.31-1.72,2.85-2.32,4.42-.15.4-.03.64.42.67ZM402.91,147.71c-.36.6-.78,1.11-.91,1.48-.38,1.03,1.18,1.46,1.18,2.53,0,.2.22.51.48.34.53-.35.75-.97.91-1.54.13-.45.26-1.1-.34-1.37-.61-.27-.82-.85-1.31-1.43ZM388.36,179.43c.3-.84.79-1.66.03-2.21-.78-.57-1.8-.34-2.72-.21-.33.05-.53.41-.52.75.01.4.39.34.65.36.98.1,1.71.7,2.56,1.31ZM392.56,159.11c-1.18.55-1.39,1.38-1.12,2.39.07.25.17.61.53.54.18-.04.37-.27.47-.46.36-.75.27-1.53.13-2.46ZM434.05,162.97c.03-1.06.59-2.01-.23-3.03-.54,1.1-1.1,2.05.23,3.03ZM423.92,161.11c-.06-.07-.13-.22-.22-.24-.25-.06-.29.16-.28.33,0,.1.11.26.2.28.24.05.26-.15.31-.37Z"/>
  <path class="st0" d="M290.3,88.99c1.21-.15,2.44.17,3.64-.17.74,1.54,3.01,1.4,3.51,3.21.01.05.26.04.4.06.56.09,1.11.17,1.67.27.65.11,1.42.32,1.26,1.1-.13.63-.18,1.77-1.49,1.28-.63-.24-.83.34-.97.76-.21.63.39.76.74.75.78-.03,1.3.5,1.97.69.37.1.62.72,1.1.28.27-.25.49-.28.69.02.15.23-.02.43-.13.64-.3.59-.76.68-1.39.68-2.9-.03-2.77-.07-1.59,2.53.65,1.43,1.48,1.74,2.81,1.4.39-.1.81-.26.92.25.11.5-.32.82-.73.88-2.11.34-3.82,1.27-4.94,3.15-.23.38-.69.43-1.06.62-1.81.92-3.6,1.89-4.82,3.61-.17,0-.34.02-.51.03-.02-.53-.27-.45-.65-.31-1.12.38-2.11.98-3.11,1.58-3.09,1.85-6.54,3.01-9.5,5.14-2.52,1.81-5.41,3.09-7.79,5.14-.21.18-.49.38-.75.39-1.91.08-2.11,2.35-3.68,2.83.1,1.22-.96,1.75-1.53,2.58-.12.18-.17.45-.15.67.1,1.03-.34,1.93-.58,2.89-.46,1.87-.81,3.76-1.13,5.66-.13.76.26,1.53.63,2.13.35.57.87-.23,1.36-.21.63.02,1.26-.25,1.79.46.5.66,1.31.39,1.78-.05,2.11-2.02,5.18-2.69,7-5.12.3-.4.88-.54.52-1.22-.14-.26-.03-.58.27-.73.38-.19.46.21.64.38.43.41,1.08.48,1.45.25.96-.61,2.15-.5,3.08-1.29.81-.7,1.87-1.34,2.79-1.69,2.41-.91,4.56-2.32,6.94-3.21.24,2.33.83,2.56,3.01,1.19.53-.34,1.11-.61,1.66-.9.32.46-.03.8-.05,1.16-.06,1.35.2,1.56,1.42.96.7-.35,1.48-.63,1.84-1.43.22-.49.66-.6,1.06-.38.7.37,1.29.04,1.91-.15.7-.22,1.37-.21,2.11-.2,1.07.02,2.24.61,3.29-.05,1.85-1.17,4.04-1.06,6.03-1.7.13-.04.29,0,.42-.04.52-.16.95-.11,1.14.48.22.71-.4.86-.8.89-1.02.05-1.84.62-2.74.95-.61.22-1.21.57-1.9.21-.21-.11-.58-.12-.62.12-.28,1.71-1.19,1.09-2.12.64-.27-.13-.76-.14-.96.03-1.08.89-2.52,1.07-3.62,2.01-.74.63-1.47,1.56-2.41,1.74-1.28.24-2.17,1.15-3.34,1.53-.46.15-.79.64-.58,1.14.21.49.8.33,1.14.23,1.6-.44,3.2-.32,4.85-1.4,1.85-1.21,4.31-1.69,6.36-2.84.24-.13.44-.14.63.06.18.19.24.43.12.65-.24.44-.59.74-1.13.72-.59-.03-.86.34-1,.82-.15.5-.03.93.47,1.21.28.16.6.31.49.74-.19.77-2.27,1.69-2.94,1.26-1.12-.72-1.81-.53-2.32.76-.32.8-.94,1.49-1.42,2.23-.43.66-1.32.05-1.39.17-.81,1.45-2.08.55-3.13.75-.97.18-2.31.37-2.68,1.23-.52,1.22-1.73,1.43-2.44,1.54-1.26.19-.9,2.21-2.38,1.72.05.37.09.74.14,1.11.07.53-.04,1.11-.63,1.02-1.09-.15-1.51.4-1.82,1.26-.05.15-.26.29-.42.35-1.11.39-1.52,1.15-1.4,2.3.08.77-.16,1.21-.94.55-.57-.47-.83-.52-1.42.19-.59.71-1.36,1.53-2.5,1.59-.53.03-1.07.23-1.28.76-.21.54-.79.68-1.02.99-.84,1.15-2.42,1.11-3.23,2.22-.26.36-.64.25-1.03.17-1.26-.25-1.82.15-1.72,1.39.05.61-.16.94-.57,1.15-1.16.61-2.33,1.24-3.7,1.25-2.6.03-4.29,1.51-4.78,4.07-.06.34.02.73-.33,1.03-.76.66-.92,1.46-.59,2.44.21.61.23,1.19-.74,1.29-.91.1-.35.7-.06.79,1.02.31.88,1.07.88,1.82,0,2.27-.03,4.54,0,6.81.02.96-.13,2.1.33,2.82.69,1.08.99,2.26,1.37,3.41.63,1.9.86,3.95,2.76,5.19.45.3.71.88,1.1,1.28,1.64,1.67,2.97,2.7,5.56,1.63,1.38-.57,2.77-1.14,4.15-1.67,2.48-.93,5.1-1.33,7.24-3.21,1.36-1.19,2.63-2.53,4.45-3.32,2.64-1.15,4.47-3.67,7.16-4.93.89-.42,1.88-.85,2.59-1.65.51-.58,1.14-1.28,1.9-.66.8.65-.34,1.07-.46,1.64,0,.04-.06.07-.09.11-.54.92-.3,1.38.76,1.5,1.18.14,2.25-.1,3.11-.96.97-.98,1.94-.22,2.89,0,.26.06.44.5.09.66-.8.37-.92,1.39-1.49,1.73-2.06,1.24-2.09,3.57-3.13,5.34-.22.37-.23.87.2,1.15.38.24.67-.04.99-.29,1.1-.86,2.14-1.88,3.39-2.44,1.03-.46,1.91-.89,2.5-1.85.25-.41.66-.86,1.13-.6.56.3.27.93.16,1.41-.17.68-1.1.95-1,1.79-.1.09-.21.18-.31.26-.48-.1-.84.12-1.12.47-1.34,1.72-2.2,3.75-3.5,5.51-.44.6-.89,1.3-1.33,1.93-.9,1.29-1.6,2.97-3.1,3.53-2.5.94-4.97,1.81-7.28,3.24-2.57,1.58-5.49,2.57-8.4,3.46-.51.16-1.16.63-1.06.91.18.53.86.65,1.46.5.18-.05.4-.08.52-.2.75-.74,1.77-.56,2.66-.79.26-.07.61-.16.69.22.08.35-.28.55-.51.57-1.11.12-2,.81-3.02,1.11-1.11.33-2.16.75-3.47.28-1.17-.42-2.51-.19-3.16,1.33-.45,1.04-1.53,1.41-2.53,1.6-2.85.54-5.64-.26-8.22-1.19-2.31-.84-4.74-.97-7.06-1.75-1.33-.45-2.8-.91-3.96-1.54-2.03-1.09-3.99-2.45-5.81-3.9-3.06-2.45-5.37-5.63-7.95-8.55-.37-.42-.67-.95-.4-1.57.19-.44.04-.88-.15-1.23-1.14-2.19-1.64-4.61-2.52-6.89-.12-.31-.12-.68-.57-.67-1.31.03-2.56.35-3.68,1.01-.94.55-.45,1.55-.5,2.35-.05.78.09,1.51-1.07,1.56-.53.03-1.08.41-1.22,1.03-.14.64-.59.63-1.08.63-.85,0-1.62-.45-2.5-.38-.52.04-.61-.54-.38-.82.58-.71.77-1.92,2.14-1.73.38.05.81-.2,1.2-.36.31-.13.63-.33.51-.73-.12-.43-.44-.61-.88-.42-1.3.57-2.99-.03-4.04,1.34-.1.13-.46.16-.66.1-1.07-.31-1.04.37-.83.99.26.78-.2,1.09-.71.92-.82-.27-1.44-.02-2.17.22-.94.31-2.45-.46-2.21-1.01.3-.68.42-1.29.25-2.02-.08-.36.13-.82.53-.91,1.56-.35,2.46-1.9,4.05-2.2.43-.08.56-.51.42-.92-.18-.51-.55-.11-.84-.13-.78-.06-1.31.88-2.12.57-.85-.32-1,.1-.95.79.06.74-.26,1.07-1,.94-.65-.11-1.11-.45-.86-1.16.37-1.04-.09-1.57-.99-1.92-.38-.14-.51-.34-.28-.75.22-.39.47-.41.81-.18.19.13.37.3.58.4,1.15.59,1.95.07,2.13-1.22.19-1.32-.42-2.09-1.53-2.52-1.02-.4-1.1-.84-.17-1.38,1.78-1.02,2.88-2.78,4.49-4.02,1.82-1.41,3.21-3.34,4.71-5.12.41-.49,1.02-.81,1.54-1.22,1-.78,2.02-1.54,1.83-3.05-.11-.87.22-1.53.97-1.95.56.32-.2.84.36,1.19.2-.65.9-.43,1.35-.86.99-.93,2.07-1.76,2.99-2.78.87-.97-.28-2.57,1.21-3.41.28-.16.06-1.29,1.09-1.3.43,0,.39-.59.57-.9.5-.84-.07-1.83.28-2.59.5-1.08.33-2.09.21-3.17-.23-2.02-.41-4.03,1.24-5.69.43-.43.43-1.22.05-1.72-.47-.62-1.06-1.7-1.77-1.41-.94.37-1.28-.07-1.79-.53-.36-.33-.79-.6-1.26-.58-1.97.09-3.32-1.22-4.71-2.23-.72-.53-1.89-1.22-1.6-2.54.29-1.31.18-1.47-1.12-1.28-1.57.23-2.04-.11-2.03-1.65,0-.85-.19-1.64-.4-2.44-.49-1.85-.06-3.39,1.57-4.53.22-.15.57-.27.18-.75-.82-1.01-.62-1.9.51-2.42,3.26-1.52,5.65-4.28,8.74-6.04.18-.1.21-.29.16-.49.24-.25.47-.5.71-.75,1.03.07,1.54-.62,2.01-1.36.25-.06.49-.11.74-.17.76.2,1.44-.03,2.17-.27,1.16-.38,1.66-1.51,2.63-2.07,2.59-1.46,5.37-2.61,7.61-4.65.2-.18.49-.29.76-.36,2.11-.51,3.5-2.39,5.59-2.92,1.45-2.71,4.69-2.22,6.89-3.74,1.38-.95,3.33-1.47,4.72-2.56,1.31-1.02,3.14-.95,4.21-2.3.18-.22.53-.04.81.03.37.09.74.15,1.11.01,2.89-1.1,5.83-2.03,8.88-2.56.36-.06.92.03,1-.59Z"/>
  <path class="st0" d="M349.27,282.12v-.49c.18-.29.25-.58.18-.94-.31-1.65-.45-3.35-.61-5-.4-4.3-2.26-8.24-2.72-12.5-.06-.53-.42-1.04-.72-1.52-.31-.51-.79-.75-1.29-.25-1.3,1.3-3.07,1.95-4.36,3.25-1.92,1.93-4.5,2.19-6.91,2.34-2.47.15-4.95.23-7.41.56-.8.11-1.65.27-2.39.03-2.8-.92-5.87-.99-8.37-2.82-.88-.65-1.6-.2-1.72.86-.27,2.48-.47,4.96-.52,7.45-.03,1.58.11,3.13-.55,4.72-.77,1.85-.22,3.92-.31,5.9-.08,1.62.33,3.13.86,4.68.41,1.21,1.23,2.54.82,3.79-.51,1.53.08,3.05-.4,4.58-.31.96-.6,1.71-1.58,1.91-.97.19-1.35.64-1.35,1.63,0,.69-2.92,2.76-3.62,2.67-.14-.02-.34,0-.41-.08-1.1-1.49-1.95-.27-2.87.26-.07.02-.15.06-.21.09-.32-.06-.76-.02-.94-.21-.74-.84-1.29-.7-1.92.14-.38.51-3.55.55-4.02.09-1.3-1.25-2.97-2.31-2.38-4.57.07-.29-.14-.64-.17-.96-.13-1.59-.84-3.06-.76-4.71.15-3.11.24-6.24.95-9.26.26-1.11-.23-2.15.08-3.08.81-2.46.04-5.03.81-7.51.54-1.73.98-3.58.6-5.47-.06-.29.13-.5.41-.67.74-.45.84-1.17.45-1.83-.37-.64-.4-1.34-.24-1.91.26-.95.74-1.82.07-2.79-.13-.19.01-.5.29-.53.89-.09.64-.74.68-1.27.07-.89.06-1.81.27-2.66.61-2.43.89-4.84.05-7.27-.14-.39.08-.74.26-1.07.29-.55.57-1.14.48-1.75-.29-1.95.62-3.28,2.09-4.37.26-.19.48-.48.61-.77.39-.86.79-1.74.03-2.63.02-.18.03-.35.05-.53.74-.7,2.13-.42,2.57-1.31.5-1.03,1.44-1.39,2.18-2.03,2.76-2.38,5.79-2.97,9.13-1.29.35.17.69.29,1.08.26.81-.07,1.21.34,1.65,1.03.73,1.16,1.07,3.01,3.44,2.31-1.32.62-.89,1.6-.67,2.29.26.84.69,1.74,1.52,2.24.77.47,1.29,1.27,1.16,1.97-.5,2.68,1.74,3.86,2.87,5.63.59.92,1.88.74,2.65,1.49.25.24.82.08,1.04-.41.09,0,.17,0,.25-.04,1.7-.03,2.17-1.36,2.74-2.59.03-.08.06-.17.09-.25.71.05.97-.54,1.27-.99,1.6-2.41,3.07-4.9,4.88-7.17,1.11-1.39,2.16-3.23,3.71-3.75,2.4-.81,4.07-2.84,6.59-3.36.82-.17,1.45-.31,2.25,0,1.85.72,3.47,2.03,5.35,2.51,2.03.51,2.63,1.87,3.07,3.54.08.32.2.62.27.93.61,2.62,2.33,4.97,1.88,7.87-.12.8.02,1.78.4,2.48.44.82-.11,2.05,1.02,2.5.76.31.72.87.87,1.53.25,1.1-.45,2.39.41,3.25.55.54.84,1.19,1.29,1.76,0,.19-.01.38-.02.57-.64.14-.09.88-.67,1.2-.73.41-.45,1.37.45,1.87.07.11.15.23.22.34-.44,1-.52,1.98.07,2.96.26.42.35.93.14,1.36-.35.75-.11,1.45.24,2.01.5.81.53,1.64.31,2.44-.16.58-.09,1.05.21,1.44.55.71.54,1.39.2,2.16-.17.39-.26.93-.01,1.23.86,1.03-.5,2.67.98,3.51.04.02-.09.43-.2.62-.18.29-.27.55-.21.92.24,1.43.36,2.89,1.34,4.07,0,.19-.01.37-.02.56-1,.54-1.13,1.63-.72,2.33.8,1.36.86,2.98,1.75,4.28.38.55.19,1.17-.28,1.52-.55.4-.81-.16-1.06-.56-.27-.44-.88-.76-.39-1.45.25-.36-.22-.44-.45-.53-.32-.13-.51.17-.41.36.46.95-.51,2.19.62,3.01.14.1.22.49.14.65-.54,1.02-.14,2.14-.33,3.22-.66-.1-.89-.62-1.24-1.05-.31-.38-.79-.66-1.33-.27.74.82-.82.21-.57.95.18.52.36,1.11.44,1.4-.35.9-1.78-.71-1.41.88.26,1.14-.14,1.55-.99,1.93-.27.12-.51.24-.53.59-.05.99-.62.6-1.05.36-.49-.27-.93-.64-1.41-.93-.34-.21-.81-.34-.88.22-.2,1.64-1.57,1.12-2.42,1.2-.95.09-1.6-.66-1.88-1.62-.14-.46-.11-1.1-.87-1.07-.07-.03-.14-.06-.21-.09-.45-.98-1.27-1.95-1.28-2.94-.05-3.18-.81-6.25-1.41-9.32-.41-2.06-.18-4.24-1.11-6.19ZM294.03,284.1s.06-.07.09-.1c-.07-.04-.14-.09-.22-.11-.02,0-.06.06-.09.1.07.04.14.08.21.12Z"/>
  <path class="st0" d="M429.89,265.42c-.19-.59-.37-1.18-.56-1.77.2-.1.26-.29.18-.47-.65-1.43-1.22-2.92-2.03-4.26-.45-.75-.8-.12-.97.42-1.73.81-2.91,2.33-4.28,3.55-2.57,2.28-5.14,4.6-7.34,7.28-1.32.62-2.23,1.79-3.19,2.77-.87.9-1.61,2.12-1.65,3.59-.02.81-.26,1.66-.61,2.39-.28.6-.71.55-.77-.22,0,0,.03-.03.03-.03l-.03.04c-.55.35-1.07-1.21-1.59-.07-.61,1.34-.87,2.77-.92,4.24,0,.29.04.6.45.54.3-.04.4-.35.31-.54-.43-.93.12-1.57.54-2.29.19-.33.27-.82.74-.6.41.18.29.7.15,1.02-.39.94-.59,1.86-.29,2.89.14.46-.02.91-.61,1.1-1.83.56-2.63,1.73-2.38,3.43.06.4.31.47.59.25.25-.2.47-.47.62-.75.19-.38.4-.52.76-.25.35.26.32.72.04.84-1.39.59-1.35,1.46-.67,2.58.11.18-.08.54-.12.81-.3,2.25-1.17,4.42-.92,6.75-.01.16-.03.33-.04.49-.47.47-.26,1.08-.28,1.62-.03.95-.15,1.88-.38,2.79-.06.26-.17.6-.49.61-.4.01-.38-.35-.39-.62,0-.78-.48-1.35-.75-2.07-2.24,2.05-2.31,1.97-2.02,5.35-.19.09-.38.19-.57.28-1.25.15-2.51.3-3.76.45-.36.04-.79.26-1.01-.18-.37-.74-1.19-.85-1.48-.42-.37.55-.93,1.43-.05,2.15-.18.27-.36.54-.54.81-1.18-.77-.44-2.16-.99-3.14-.04-.07.16-.38.3-.43,1.05-.37.59-.96.25-1.54-.55-.92-.74-1.84-.53-2.96.3-1.59.31-3.24.42-4.87.02-.3.13-.7-.28-.87-1.54-.62-2.32-1.65-1.84-3.36.19-.68-.02-.78-.61-.51-.24.11-.44.37-.84.25-.15-.35.41-.78-.02-1.17-.64.01-.88.61-1.28.96-.77.69-1.55,1.23-2.66.69-.39-.19-.73-.8-1.31-.16-.53.59-.43,1.08-.04,1.63-.23.18-.49.27-.79.22-.04-.08-.07-.19-.13-.25-.62-.56.49-1.48-.33-1.89-.93-.47-1.09.76-1.77,1.02-.8.32-.98-.24-1.35-.59-.32-.31-.42-.6,0-.92,1.07-.81.69-2.01,1.06-3.2-.91.4-.94,1.35-1.69,1.55l-.07-.07c-.04-.38.04-.72.16-1.1.4-1.24,2.18-1.97,1.35-3.67-.03-.06.19-.33.33-.37,2.16-.56,3.16-2.57,3.81-4.15,1.33-3.23,4.07-5.28,5.8-8.13.08-.13.32-.16.5-.22,1.02-.35,1.64-1.09,1.87-2.11.2-.9.83-1.43,1.51-1.88.42-.28.75-.47.81-1.02.08-.68.47-1.22,1.06-1.6.76-.48,1.06-1.14.93-2.04-.04-.3.02-.69.19-.94.54-.82.52-1.66.28-2.54-.17-.51-.1-.97.28-1.36.94-1.44,1.53-3.04,2.12-4.65.28-.42.22-.92.29-1.39.6-.97,1.27-1.91,1.29-3.12.04-.18.09-.36.13-.55.42-.23.41-.63.41-1.02.44-.51.34-1.2.62-1.76.8-.85,1.38-1.8,1.42-3.01.16-.24.32-.48.48-.73.58-.11.48-.54.45-.94.84-1.28,1.67-2.55,2.51-3.83.28-.13.43-.33.4-.65.12-.17.24-.35.36-.52,1.65-1.09,2.14-3.08,3.52-4.46,1.12-1.12,2.53-1.93,3.47-3.25.31-.44,1.18-.97,1.59-.39.8,1.14,1.85.7,2.44.27,1.03-.74,2.07-.44,3.11-.56.83-.1,1.55.34,2.28.52,1.29.33,2.83.09,3.84,1.03,1.03.95,2.29,1.41,3.41,2.13.94.61,1.79.93,2.88-.09,1.25-1.17,2.95-1.53,4.63-.94,1.58.56,2.99-.05,4.4-.49,1.37-.43,1.8-2.28,3.43-2.5.18.22.01.42-.04.64-.06.25-.19.56.15.74q1.48-.82,2.71-.19c.95.49,1.04,1.21,0,1.65-1.66.71-1.51,2.1-1.1,3.16.56,1.45-.32.91-.92,1.02-.45.08-.66-.52-1.29-.25.78,1.38.36,2.06-1.17,2.64-1.72.65-2.61,2.52-3.58,3.96-.48.71-.44,2.03-1.3,2.82-.08.08-.07.41.02.5.25.26.58.11.75-.09,1.23-1.52,3.31-1.74,4.65-3.08.28-.28.61-.6,1.38-.33-1.62,1.46-3,3.01-4.67,4.11-1.14.75-1.01,1.4-.66,2.32,1.06,2.72,2.87,5.22,1.54,8.46-.78,1.9.41,3.6,1.35,5.22.13.23.28.41.54.29.14-.07.29-.27.3-.42.03-.6.33-1.36-.19-1.76-.64-.49-.55-1.16-.78-1.75-.15-.39-.36-.92.22-1.06.49-.12.69.39.82.81.25.81.4,1.68.78,2.42.52,1.02.03,1.88-.7,2.03-1.92.38-1.07,1.34-.72,2.28.06.17.04.37.05.56.02.4.12.86.58.81.56-.06.78-.71,1.27-.99.29-.17-.19-.47-.5-.62-.3-.14-.64-.4-.3-.75.25-.25.62-.48.94.01.41.63.86,1.23,1.29,1.84-.05,1.25.54,2.48.12,3.74-.4.02-.63.84-1.04.38-.38-.43.23-.55.5-.77.2-.17.22-.47-.05-.57-.49-.18-1.03-.22-1.51-.03-.49.19-.45.65-.4,1.09.14,1.32.37,2.55,1.8,3.16.29.12.45.47.8.17.27-.23.41-.5.37-.87-.04-.35-.59-.54-.31-.98.78-.15.42.91,1.02.93.07.59.15,1.18.22,1.78-.51.96.16,1.49.75,2.04.02.26.04.52.07.79-1.11.73-.31,2.2-1.31,3.27-.13-2.01-.93-3.65-.96-5.46,0-.31.1-.77-.35-.81-.59-.05-.36.52-.49.83-.86,1.98.09,3.95.28,5.85.17,1.77.45,3.58.65,5.38.1.88-.11,1.92.62,2.62,1.06,1.02,1.73,2.04.69,3.46-.14.19-.22.42-.06.66.84,1.23.53,2.71.89,4.04.36,1.34-.2,2.76.37,4.04.91,2.04,1.06,4.28,1.4,6.42.22,1.36.61,2.57,1.09,3.8.04.45.08.9.12,1.35-.14.58-.46,1.2.34,1.58.03.08.06.16.09.24-.01.05-.04.1-.03.14.68,1.62.78,3.34.92,5.06.03.31.12.55-.2.67-.32.12-.68.13-.86-.24-.2-.41-.35-.83-.43-1.31-.17-1.06-.16-2.15-.59-3.18-1.23-2.92-1.81-6.04-2.11-9.15-.2-2.06-.25-4.09-1.13-6-.23-.5,0-1.3-.62-1.48-1.25-.36-.66-.53,0-.83.51-.23.78-.92.34-1.1-1.38-.55-1.6-1.51-1.18-2.83-1.26.32-1.3,1.16-1.25,2.02.16,3.11,1.38,6.04,1.59,9.14.01.18.11.44.24.5.65.31.47.92.66,1.4.43,1.04.04,2.03.21,3.02.41,2.29.38,4.72,2.11,6.58.11.12.05.37.12.54.53,1.44.56,2.89.37,4.42-.13.99.19,1.89-1.38,1.51-.51-.12-1.18.27-1.17.97,0,.91.63.57,1.12.42.33-.1.56.05.7.32.2.36.05.64-.28.83-.75.42-.58.97-.26,1.57.22.41.43.82.64,1.22-.2.05-.41.11-.61.16-.37-.63-1.08-.9-1.65-.98-.92-.12-2.03-.54-2.78.39-.48.6-.51,1.19-1.64.5-1.49-.92-1.87-2.43-2.64-3.69-.42-.69-.33-1.76-.79-2.62-.26-.48-.59-1.24-.26-1.75.88-1.39-.11-2.87.35-4.27.22-.65-.31-.9-.94-.85-.71.05-.71-.22-.53-.86.2-.73.76-1.23.97-1.96.73-2.54-1.55-4.37-1.48-6.72,0-.03-.07-.05-.11-.08-.69-.51-.9-1.19-.62-2,.14-.42.17-.68-.38-.82-.98-.24-1.1-.78-.38-1.51.41-.42.51-.7-.27-.74-.15,0-.35-.41-.41-.67-.31-1.32-.69-2.65-.82-3.99-.11-1.13-.62-2.12-.2-3.46.57-1.82-.18-3.81-.97-5.58-.36-.81-.47-1.53-.43-2.41.05-1.12.38-2.41-.36-3.36-1.11-1.42-1.84-2.97-1.47-4.71.23-1.08-.08-2.14.26-3.17.07-.22-.08-.4-.26-.41-1.2-.02-1.35-1.07-1.8-1.82-.52-.88-.45-2.01-1.14-2.83-.05-.07-.1-.14-.16-.21.27-.79.05-1.38-.72-1.74ZM417.75,263.64c.71.06,1.14-.15,1.61-.43,2.39-1.46,4.17-3.65,6.42-5.27.24-.17.41-.47.27-.73-.07-.14-.4-.18-.62-.19-1.27-.04-2.53.32-3.43,1.09-1.64,1.4-3.08,3.05-4.6,4.59-.22.22-.63.41-.4.79.2.33.61.13.75.15ZM444.52,275.07c-.2.52-.71,1.1.03,1.54.41.25.89.55,1.43.1.73-.62.18-.93-.25-1.31-.05-.05-.07-.18-.05-.26.52-1.97-1.69-2.17-2.25-3.45-.03-.07-.34,0-.57,0,.01.56.73.89.42,1.34-1.17,1.66.27,1.69,1.25,2.06ZM447.5,292.84c.75-.19.92-.82,1.07-1.46.09-.41-.15-.7-.51-.64-.84.13-.65,1.01-.95,1.53-.15.26.01.54.4.58ZM447.35,284.17c-.32.04-.82.19-.75.45.13.45.53.81.82,1.22.28-.24.66-.37.71-.82.06-.58-.37-.69-.79-.84Z"/>
  <path class="st0" d="M225.4,275.84c0-.61,0-1.22-.01-1.83.59-.19,1.39.2,1.78-.53.76-1.44-.24-3.48-1.85-3.84-.09-.23-.17-.46-.26-.69.06-.98.97-1.94.11-2.95.03-.95.07-1.9.1-2.85.71-.37.73-.75,0-1.12.02-.84.04-1.68.06-2.52.81-.28.9-.86.89-1.66-.02-1.68-.15-3.45,1.27-4.78.49.25.41.7.35,1.11-.08.58-.02,1.08.7,1.1.71.02.54-.66.65-1.04.2-.67-.13-1.42.22-2.09,1.04-1.95.99-2.36-.64-4.05-.49-.51-.49-1.32-.1-1.48.94-.38,1.26-1.17,1.82-1.84.88-1.05.93-1.81-.07-2.71-1.36-1.23-1.35-1.41.1-2.71.27-.25.6-.54.69-.87.37-1.34,1.27-1.62,2.48-1.33.53.13.93-.03,1.23-.46.06-.09.09-.29.03-.38-.35-.52-.76-.03-1.15-.03-.26,0-.53.33-.78.08-.28-.27.05-.49.14-.74.49-1.43,2.03-2.2,2.25-3.82.17-1.25,1.13-1.96,2.29-2.2,1.87-.39,3.69-1,5.68-.87,2.6.16,5.22.04,7.8.48.23.1.45.2.68.3.42.6,1,.42,1.56.34.34.06.68.12,1.01.18,1.43,1.76,3.6,2.3,5.5,3.21,3.51,1.68,6.43,4.04,8.93,6.94.47.55.75,1.29,1.37,1.75,1.66,1.24,3.28,2.54,4.54,4.2.68.89,1.53,1.63,2.45,2.1,2.09,1.07,2.42,3.39,3.79,4.96.55.63,1.83,1.86.11,2.86.27,1.67-.28,3.58.76,4.97,1.11,1.49,1.1,3.03,1.12,4.68,0,.66.02,1.33.13,1.97.32,1.84.13,3.59-.9,5.16-.29.45-.32.8-.2,1.3.23.96.65,2.04-1.01,2.57.84.37,2.18.52.58,1.3-.2.1-.28.22-.26.44.13,2.13-.67,3.87-2.17,5.35-.24.24-.74.7-.23,1.21h-.01c-.22,1.53-1.08,2.85-1.72,4.21-.39.84-.69,1.85-1.4,2.52-.98.92-1.75,1.94-2.22,3.21-.11.29-.5.56-.08.83.29.18.62.05.9-.19.8-.68,1.52-1.45,1.93-2.39.3-.68.71-.84,1.41-.83-1.37,1.19-1.06,3.37-2.77,4.35-.43.24-.7.75-1.06,1.12-.98,1.03-1.52,2.49-2.89,3.12-1.57.72-2.62,2.08-3.91,3.13-.96.78-1.88,1.49-3,2.05-1.08.54-2.36.3-3.32,1.02-.81.61-1.72.64-2.66.76-2.67.33-5.5-.25-7.97,1.36-.25.17-.67.28-.94.19-2.54-.8-5.39-.59-7.59-2.58-.95-.86-1.08-1.13.1-1.48-2.1-1.93-4.62-3.38-6.23-5.76-1.55-2.29-2.42-4.98-3.74-7.4-1.09-1.99-1.59-4.13-2.24-6.23-.3-.97-.44-1.97-.88-2.94-.44-.98-.8-2.13-.73-3.18.11-1.69-.81-2.06-2.12-2.23-.04-.18-.08-.35-.12-.53.26-.51.44-1-.26-1.31ZM260.29,258.13c.22-.84-.32-1.07-.96-1.22l-.22-.45c.44-.84.3-1.53-.54-2.02-.15-.09-.29-.18-.43-.28.07-.06.14-.11.21-.16.84-.58.13-1.02-.14-1.5-.22-.39-.51-.75-.99-.65-.78.15-.26.88-.49,1.28-.03.06-.13.08-.2.12-.56-.15-.66-1.33-1.57-.69-1.76-1.02-3.13-2.61-5.01-3.46,0-.19-.04-.37-.28-.35-.29.03-.32.24-.27.48h0c-1.18-.21-1.24.82-1.55,1.48-.28.6-.5,1.02-1.29,1.04-1.72.05-2.55.84-2.51,2.6.02,1.04-.5,1.72-1.07,2.34-.83.9-1.41,2.03-1.66,3.05-.49,1.98-.42,4.1-.6,6.15-.19,2.19.74,4.34.23,6.55-.08.36.09.72.22,1.08.48,1.34,1.23,2.59,1.49,4.02.06.31.23.53.54.57.4.05.5-.25.45-.54-.37-2.01.2-4.14-.41-6.03-.64-1.99,0-4.01-.65-5.94-.21-.61.07-1.11.87-1.09.42.01.92-.33.76-.63-.74-1.41.85-2.16.73-3.44.39.38.54.72.53,1.12-.07,2.03.04,4.06-.21,6.08-.13,1.07-.29,2.26.06,3.23.84,2.37,1.14,4.84,1.68,7.26.36,1.58.28,3.29,1.54,4.59.41.42.78,1.02.89,1.59.48,2.47,2.03,4.45,3.22,6.53,1.18,2.08,2.68,2.81,4.72.58.85-.93,1.7-1.85,2.51-2.82,2.12-2.52,3.74-5.22,4.23-8.57.18-1.24-.33-2.56.38-3.71.35-.56.34-1.14.42-1.75.31-2.48-.35-5.06.8-7.45.07-.16-.05-.47-.18-.65-.76-1.07-.96-2.35-1.4-3.54-.18-.49-.25-1.03-.94-1.03-.08-.04-.17-.08-.26-.11-.52-1.43-.97-2.92-2.57-3.59l-.08-.08ZM243.26,248.67c.04.63-.54,1.01-.05,1.57.53.6.8-.08,1.19-.17.33-.08.68-.09.95.13.44.35.88.47,1.18-.08.31-.55.65-1.19.26-1.82-.21-.33-.53-.78-1.01-.64-.47.13-.32.63-.31.98.05.97-.39,1.06-1.12.66-.29-.16-.57-.32-1.1-.62ZM241.19,254.37c.68.06,1.24.07,1.18-.79-.02-.29.05-.56.39-.66.38-.12.75-.33.61-.78-.17-.54-.7-.34-1.09-.34-.88.01-1.5.5-1.85,1.27-.38.81-.4,1.5.76,1.31ZM277.75,284.71c-.05-.29.1-.77-.33-.78-.78,0-.9.69-1.01,1.28-.07.35-.12.87.4.87.87,0,.65-.87.95-1.36Z"/>
  <path class="st0" d="M216.54,191.52c.6.1,1.21.19,1.81.29.7.86,2.27.19,2.68,1.55-.63.68-1.33-.04-2,.08-.51.09-1.13.2-.77.79,1.01,1.67.23,1.81-1.18,1.56-.13-.02-.27.08-.41.09-1.83.21-3.66.39-5.49.63-.5.07-1.41-.32-1.41.38,0,.78.89.79,1.58.76.19,0,.4.03.56-.04,1.36-.54,2.71.01,4.05.05,1.25.03,2.63,1.64,2.73,2.86l.02-.02c-.73-.11-1.3.52-1.17.9.35,1.02-.33.69-.72.7-1.67.06-3.25-.53-4.89-.69-.56-.06-1.38-.03-1.19-.99.18-.9.8-.29,1.25-.27.34.01.78.06.83-.33.08-.61-.49-.38-.8-.43-1.78-.29-3.64-.35-5.34-.89-1.43-.45-1.52.58-1.81,1.24-.42.96.5,1.17,1.15,1.36.53.15,1.13,0,1.66.28.31.17.58.39.47.77-.14.46-.52.37-.81.21-1.29-.73-2.76-.36-3.82.09-2.08.88-4.19.77-6.31.98-.88.09-1.61-.21-2.41-.57-1.56-.71-3.17-1.14-4.98-1.07-.62.02-1.32.82-2.02.06-1.16-1.25-2.63-2.1-4.13-2.9-2.06-1.09-3.86-2.56-5.1-4.47-1.83-2.82-4.57-4.62-6.93-6.85-.2-.19-.53-.55-.83-.16-.23.29-.05.65.19.9.66.68,1.34,1.33,1.99,2.02.28.29.77.57.37,1.05-.34.41-.93.47-1.3.2-.97-.73-2.19-1.41-2.54-2.56-.45-1.49-1.25-2.7-2.06-3.97-1.94-3.06-3.12-6.42-3.32-10.06-.1-1.84-.32-3.77.12-5.5.46-1.81.41-3.37-.34-5-.16-.34-.54-.92-.09-1.15.83-.42.57-1.11.62-1.71.14-1.48-.24-3.01.49-4.45.1-.19.43-1.15-.58-.64-.4.2-.43-.18-.54-.42-.27-.58-.35-1.23-.2-1.81.63-2.52.82-5.09,1.18-7.64.11-.79.65-1.66,1.68-1.6,1.46.08,1.4-1.02,1.51-1.89.11-.9,1.53-1.3.88-2.44-.02-.04-.05-.08-.07-.12-.86-1.62-.7-2.1.96-2.87,1.38-.65,1.53-1.31.62-2.65-.34.1-.36.38-.42.66-.13.61-.57.98-1.1.71-.45-.23-.63-.82-.34-1.37.11-.21.24-.41.4-.59,1.89-2.04,2.37-4.86,3.86-7.13.19-.29.03-1.21-.19-1.3-1.58-.64-.5-1.86-.7-2.79,0,0,.02-.02.02-.02,1.06-.59,1.81-1.44,2.19-2.6,0,0,.01,0,.01,0,2.06.07,3.34-1.44,4.9-2.4,1.37-.85,2.65-1.8,3.8-2.93,1.93-1.89,4.66-2.33,6.86-3.82,1.27-.87,2.66-1.8,4.28-2.28,1.65-.48,3.57-.49,4.85-1.95.09-.1.42-.13.51-.05.65.57,1.46.26,2.17.46,1.18.34,1.42-.53,1.2-1.21-.29-.9.24-.87.68-.82.69.08,1.37.26,1.89.84,1.2,1.32,2.83,1.31,4.13.11.5-.46,1.23-.51,1.45.31.39,1.49,2.24,1.87,2.48,3.47.04.28.57.24.9.26.86.06,1.7-.01,2.51-.31.46-.17.88-.23,1.34.07.92.6,1.9.95,3.04.95.83,0,1.58.79,1.19,1.44-.6,1.02-.16,1.82,0,2.7.22,1.23-.23,1.76-1.5,2.06-.74.17-1.68.47-2.07,1.03-.76,1.09-2.17,2.02-1.55,3.75.08.23-.17.6.18.86.84.61.22.9-.28,1.2-1.13.68-2.41.83-3.68.86-3.47.07-6.78.61-9.53,2.97-.85.73-1.68,1.55-2.76,1.89-1.93.61-2.84,2.31-3.96,3.68-1.99,2.43-3.02,5.46-4.44,8.25-1.46,2.88-2.48,5.94-3.39,9.03-.28.96.04,1.97-.31,2.94-.63,1.78-.95,3.73-.87,5.54.13,3.09-.17,6.18.13,9.29.36,3.64,1.95,6.78,3.45,9.91.99,2.07,2.61,3.89,4.27,5.58.93.94,1.69,2.04,3.02,2.45.77.23,1.46.65,2.19.95,1.84.76,3.61,1.9,5.77,1.6.58-.08,1.1.15,1.64.32,1.27.41,2.48,1.27,3.93.72.6.19,1.21.37,1.81.56.58.79,1.37.68,2.18.53ZM196.57,196.29c1.06.91,2.18.78,3.58,1-1.16-1.11-2.06-1.82-3.58-1ZM169.05,183.29c-.33.13-.54.32-.5.63.08.58.49.86,1.04.94.25.03.55-.09.48-.34-.14-.54-.58-.89-1.02-1.23ZM170.33,185.33c-.03.13-.07.25-.07.37,0,.02.18.08.18.07.06-.11.11-.22.14-.34,0-.01-.14-.06-.24-.1Z"/>
  <path class="st0" d="M218.44,316.72c-1.01.17-2.02.33-3.02.5-2.9.09-5.79.18-8.69.29-.42.02-.71-.18-1.05-.35-1.81-.89-3.86-.72-5.77-1.21-.27-.07-.6.09-.66.41-.1.51.35.44.64.52.59.16,1.18.33,1.77.49.4.11.94.16.77.76-.14.49-.64.34-.97.27-2.45-.58-4.93-1.05-7.09-2.46-.49-.32-1-.49-1.59-.48-2.08.04-3.83-.62-5.5-1.97-1.32-1.07-2.89-1.86-4.29-2.89-1.06-.79-2.44-1.06-3.35-2.17-.71-.86-1.48-.58-1.85.52-.17.49-.33.99-.89,1.19-.11-.11-.22-.23-.32-.34.05-1.12-.5-1.69-1.62-1.74-.08-.03-.15-.05-.23-.07.06-.45-.16-.6-.58-.54-.05-.07-.1-.13-.15-.2.27-.74-.18-.73-.68-.67-.22-.26-.43-.53-.65-.79.06-.42,0-.72-.54-.57-.33-1.27-1.12-2.16-2.06-3.08-1.28-1.24-1.72-3.09-2.7-4.57-.66-.99-.91-2.15-1.05-3.31-.36-2.88-2.15-5.42-1.92-8.43.9-.98.99-2.53.18-3.44,0-.16,0-.32,0-.48,1.03-.38.18-1.41.74-2.08.21,1.83.49,3.54.56,5.27.03.65.24.87.73.89.74.04.44-.58.46-.93.1-1.79-.02-3.57.24-5.37.17-1.18.31-2.49-.17-3.65-.42-1.01-1.07-1.87.2-2.79.39-.29.38-1.04.33-1.62-.06-.59.15-1.1.4-1.62,1.01-2.11,1.51-4.32,1.2-6.67.05-.34.09-.69.14-1.03,1.22-.64,1.51-1.63,1.07-2.89,0,0,0,0,0,0,.79-.13.93-.8,1.22-1.4,1.13-2.31,2.18-4.66,3.14-7.05.53-1.34,1.91-2.37,2-3.82.17-2.61,1.61-4.6,2.72-6.78.55-1.1,1.29-2.08,1.46-3.44.15-1.14.39-2.53,1.36-3.38.98-.86,1.82-1.77,2.35-2.95.24-.54.54-.96,1.19-1.08,3.15-.58,5.86-2.34,8.85-3.37,2.08-.71,4.2-.73,6.27-.28,1.13.24,2.13.44,3.26.09.59-.18,1.16-.13,1.76.39,1.3,1.11,2.81,1.95,4.52,2.34.1.1.21.19.31.29-.07.28.07.48.3.56,1.96.63,2.11,2.18,1.96,3.87-.09,1.02.12,1.86,1.07,2.41.42.24.39.62.16.98-.74,1.15-.79,2.12.25,3.25.79.87.13,1.93-.55,2.66-.77.82-.92-.18-1.28-.56-.12-.12-.36-.24-.5-.21-1.54.38-3.37-.03-4.46,1.6-.64.96-1.52,1.09-2.58.81-1.05-.28-1.74.11-1.87,1.28-.07.68-.49,1.26-1.16,1.16-1.47-.21-2.13.8-2.78,1.72-.6.86-1.36,1.65-1.7,2.68v.02c-.36-.96-1.16-.96-1.79-.54-.91.61-1.8,1.32-2.4,2.31-2.16,3.58-3.51,7.53-4.97,11.4-1.07,2.84-1.83,5.87-1.99,8.99-.04.82.05.86.78.68,1.42-.34,1.81.03,1.4,1.35-.2.64-.64,1.56-1.14,1.68-1.19.3-.54.82-.31,1.26.35.68,1.05,1.41-.5,1.36-.32,0-.42.2-.42.44.02,1.16-.42,2.44.23,3.47,1.41,2.25,1.66,4.82,2.28,7.29.28,1.1.76,2,1.42,2.87,1.64,2.17,3.19,4.3,5.33,6.14,3.26,2.8,6.8,4.82,10.84,5.97,1.71.49,3.39,1.13,5.15,1.46.28.05.61.12.54.5-.06.3-.33.47-.63.46-.37,0-.75-.08-1.12-.09-1.98-.08-3.96-.16-5.94-.23-.27,0-.63-.09-.68.3-.04.3.22.53.46.66.24.13.53.15.79.24,1.67.57,3.39.92,5.32,1.13-.58.3-1.2.43-.95,1.05.23.57.79.37,1.24.26.4-.1,1.3-.88,1.26-1.05-.24-.96-.2-1.07.68-1.1.51-.02,1.02.12,1.54.17.46.05.58.36.7.75.16.5-.11.68-.47.86-.43.21-.9.4-.67,1.04-.2.02-.4.04-.6.06-.83-.6-3.13-.43-3.63.32-.31.46.02.98.46.9,1.32-.24,2.52-.31,3.38.98.03.05.18.02.27.03.64.06,1.09.32,1.5.87.48.66,1.17.97,1.74-.02.33,0,.66.02.99.03-.08.56.56.74.63,1.22Z"/>
  <path class="st0" d="M202.52,271.79c-.45.54-.91,1.08-1.45,1.71-.55-1.71.42-1.73,1.46-1.7,0,0-.01-.02-.01-.02Z"/>
</svg>